<?xml version="1.0" encoding="UTF-8" standalone="no"?>
<!-- Created with Inkscape (http://www.inkscape.org/) -->

<svg
   xmlns:dc="http://purl.org/dc/elements/1.1/"
   xmlns:cc="http://creativecommons.org/ns#"
   xmlns:rdf="http://www.w3.org/1999/02/22-rdf-syntax-ns#"
   xmlns:svg="http://www.w3.org/2000/svg"
   xmlns="http://www.w3.org/2000/svg"
   xmlns:sodipodi="http://sodipodi.sourceforge.net/DTD/sodipodi-0.dtd"
   xmlns:inkscape="http://www.inkscape.org/namespaces/inkscape"
   width="297mm"
   height="210mm"
   viewBox="0 0 297 210"
   version="1.1"
   id="svg8"
   inkscape:version="0.92.2 (5c3e80d, 2017-08-06)"
   sodipodi:docname="drawing.svg">
  <defs
     id="defs2" />
  <sodipodi:namedview
     id="base"
     pagecolor="#ffffff"
     bordercolor="#666666"
     borderopacity="1.0"
     inkscape:pageopacity="0.0"
     inkscape:pageshadow="2"
     inkscape:zoom="0.35"
     inkscape:cx="222.73467"
     inkscape:cy="560"
     inkscape:document-units="mm"
     inkscape:current-layer="layer1"
     showgrid="false"
     inkscape:window-width="1402"
     inkscape:window-height="729"
     inkscape:window-x="13"
     inkscape:window-y="22"
     inkscape:window-maximized="0" />
  <metadata
     id="metadata5">
    <rdf:RDF>
      <cc:Work
         rdf:about="">
        <dc:format>image/svg+xml</dc:format>
        <dc:type
           rdf:resource="http://purl.org/dc/dcmitype/StillImage" />
        <dc:title></dc:title>
      </cc:Work>
    </rdf:RDF>
  </metadata>
  <g
     inkscape:label="Layer 1"
     inkscape:groupmode="layer"
     id="layer1"
     transform="translate(0,-87)">
    <g
       id="g165"
       transform="matrix(0.1864983,0,0,0.21133358,212.86633,233.2366)">
      <path
         id="path133"
         d="M 127.63,-0.015855 387.27,-0.032121 387.67,62.155 357.94,220.91 -0.0067815,220.7 0.024525,179.89 Z"
         inkscape:connector-curvature="0"
         style="fill:#2d2d2d" />
      <path
         id="path135"
         d="M -101.93,197.28 51.432,0.9026"
         inkscape:connector-curvature="0"
         style="fill:none" />
      <g
         id="g147"
         style="fill:#ffffff">
        <path
           id="path137"
           d="m 133.27,-0.042814 7.5748,0.0063886 -140.92,204.1699954 0.082644,-13.48 L 133.27744,-0.0364254 Z"
           inkscape:connector-curvature="0" />
        <path
           id="path139"
           d="m 254.05,-0.094788 6.4024,0.0023039 -100.29,221.0200041 -8.2426,0.0656 102.13,-221.0900041 z"
           inkscape:connector-curvature="0" />
        <path
           id="path141"
           d="m 266.7,-0.10005 6.391,0.00232 -92.081,220.97 -8.243,0.06 93.956,-221.04 -0.02,-3.7e-5 z"
           inkscape:connector-curvature="0" />
        <path
           id="path143"
           d="m 387.5,38.529 -35.495,182.38 h -8.694 l 43.991,-220.94 0.198,38.556 v 0 z"
           inkscape:connector-curvature="0" />
        <path
           id="path145"
           d="m 325.62,-0.9375 -7,22.5 h 6.57 l 6.81,-22.5 z m -135.84,1.125 -12,21.374 h 6.56 l 11.85,-21.374 z m -19.22,34.188 -19.28,34.281 h 6.97 l 19,-34.281 z m 144.06,0 -10.65,34.281 h 6.97 l 10.37,-34.281 z m -170.9,47.781 -18.88,33.564 h 7.35 l 18.59,-33.564 z m 156.03,0 -10.44,33.564 h 7.38 l 10.15,-33.564 z m -182.91,47.784 -18.465,32.84 h 7.745 l 18.19,-32.84 z m 168.04,0 -10.22,32.84 h 7.78 l 9.94,-32.84 z m -194.88,47.78 -18.281,32.5 h 8.125 l 18,-32.5 z m 180,0 -10.09,32.5 h 8.15 l 9.85,-32.5 z"
           inkscape:connector-curvature="0" />
      </g>
    </g>
    <g
       id="g237"
       transform="matrix(0.13121716,0,0,0.13798958,152.12215,214.57259)"
       style="fill-rule:evenodd">
      <path
         id="path223"
         d="m 161.07,47.691 h 12.08 V 7.501 h -12.08 v 40.19"
         inkscape:connector-curvature="0" />
      <path
         id="path225"
         d="m 95,0 c -6.732,0.046 -14.803,2.207 -17.565,9.07 -1.271,2.79 -1.97,7.186 1.507,8.678 3.141,1.488 6.431,-0.756 7.743,-3.629 1.937,-3.964 6.413,-5.819 10.661,-5.35 47.45,0.043 94.91,-0.087 142.36,0.065 4.17,0.056 7.123,3.343 9.02,6.715 1.851,3.728 8.363,3.428 9.113,-0.917 0.54,-6.441 -4.642,-12.203 -10.769,-13.544 -7.433,-1.937 -15.21,-0.759 -22.797,-1.085 -43.09,0 -86.18,0 -129.26,0"
         inkscape:connector-curvature="0" />
      <path
         id="path227"
         d="m 89.03,294.97 c -0.26,2.674 1.617,5.411 4.451,5.454 2.777,0.472 6.715,-0.186 7.288,-3.484 0.508,-4.658 0.076,-9.404 0.213,-14.1 -0.061,-34.849 0.014,-69.7 -0.132,-104.55 -0.009,-3.034 -3.057,-4.98 -5.885,-4.709 -2.663,-0.275 -5.604,1.331 -5.876,4.188 -0.279,8.162 -0.031,16.356 -0.108,24.53 0.016,30.889 0.032,61.778 0.048,92.67"
         inkscape:connector-curvature="0" />
      <path
         id="path229"
         d="m 94.39,237.55 c -4.554,4.142 -0.162,10.04 3.202,13.265 21.633,26.786 43.06,53.742 64.85,80.4 4.388,4.192 12.454,-1.428 9.483,-6.991 -2.389,-4.51 -6.377,-7.934 -9.292,-12.11 -20.04,-24.839 -39.932,-49.805 -60.12,-74.53 -2.212,-1.969 -5.919,-2.079 -8.121,-0.033"
         inkscape:connector-curvature="0" />
      <path
         id="path231"
         d="m 55.86,45.31 c -22.6,-0.574 -42.85,19.715 -42.33,42.3 -0.23,3.744 -0.569,12.211 -0.84,17.763 -4.151,92.96 -8.765,185.91 -12.628,278.86 0.592,22.979 22.494,42.08 45.3,40.13 83.995,-0.161 168.01,0.322 251.99,-0.241 23.08,-1.765 41.15,-24.899 37.731,-47.716 -4.422,-96.45 -8.843,-192.9 -13.265,-289.35 0.036,-1.979 -0.572,-8.457 -1.898,-12.02 -5.603,-19.2 -25.801,-31.803 -45.49,-29.735 -72.853,0 -145.71,0 -218.56,0 m 4.067,304.04 c -15.208,-0.135 -15.499,26.884 -0.4,27.24 8.584,-1.133 20.467,3.516 26.19,-5.218 5.712,-8.565 0.292,-23.863 -11.437,-22.02 -4.785,0 -9.569,0 -14.354,0 z m 199.12,0 c -12.427,0.595 -16.12,19.21 -5.694,25.432 7.229,3.709 16.02,1.208 23.862,1.656 12.308,-2.696 13.433,-21.933 1.747,-26.395 -6.392,-1.565 -13.363,-0.27 -19.915,-0.693 M 60.147,110.851 c 0.088,-7.965 10.112,-5.05 15.182,-5.514 65.48,0.141 131,-0.282 196.45,0.211 6.178,3.02 2.641,11.495 3.949,16.911 2.364,63.3 5.434,126.64 7.32,189.91 -3.229,6.54 -12.276,2.225 -17.965,3.466 -69.8,-0.141 -139.66,0.282 -209.42,-0.211 -6.614,-3.142 -2.026,-12.06 -2.975,-17.687 2.456,-62.36 4.978,-124.72 7.463,-187.09"
         inkscape:connector-curvature="0" />
      <path
         id="path233"
         d="m 51.732,397.47 c 0,11.939 0,23.878 0,35.817 -11.911,11.367 -23.894,22.664 -35.732,34.1 -3.462,3.675 -2.488,10.14 1.722,12.818 4.087,3.01 10.269,2.18 13.557,-1.652 12.493,-11.939 25.08,-23.789 37.513,-35.785 2.247,-2.228 2.48,-5.513 2.289,-8.49 -0.04,-12.765 0.08,-25.537 -0.059,-38.3 -0.704,-5.67 -7.214,-9.179 -12.476,-7.462 -3.938,1.045 -6.984,4.812 -6.81,8.949"
         inkscape:connector-curvature="0" />
      <path
         id="path235"
         d="m 264.26,436.96 c -0.092,3.402 2.265,6.101 4.717,8.154 12.217,11.589 24.333,23.294 36.614,34.81 4.555,3.737 12.367,2.338 14.954,-3.076 1.942,-3.605 0.677,-8.288 -2.489,-10.771 -11.477,-10.938 -22.954,-21.876 -34.445,-32.799 -0.04,-12.36 0.08,-24.725 -0.06,-37.08 -0.497,-5.33 -6.219,-8.955 -11.31,-7.957 -4.64,0.63 -8.441,5.05 -7.974,9.786 0,12.977 0,25.955 0,38.932"
         inkscape:connector-curvature="0" />
    </g>
    <g
       id="layer1-7"
       transform="matrix(0.14363096,0,0,0.15515021,50.955029,233.69918)">
      <g
         style="overflow:visible;fill:#000000"
         id="g5499"
         transform="matrix(2.465279,0,0,2.282609,1920.973,-187.8807)">
        <g
           style="fill:#000000"
           id="g5478"
           transform="matrix(1.028571,0,0,1.022222,-443.2141,-46.11586)">
          <path
             style="fill:#000000;fill-opacity:1;fill-rule:evenodd"
             id="path5490"
             d="m -181.10934,219.14712 22.90798,-4.14723 -14.43744,-20.8032 c -7.48373,7.23814 -8.41455,15.92668 -8.47054,24.95043 z m -6.30176,1.52209 c -0.0369,-0.90164 -0.16744,-2.35148 -0.16744,-3.3666 0,-10.29422 3.00202,-20.29795 11.14974,-28.61187 l -8.48546,-11.27016 -13.13407,44.446 z m -50.41148,-44.23474 0.72807,-2.47336 46.78028,-0.0679 -12.44447,41.84698 -0.53709,-4.36546 h 1.43181 l -0.17973,-2.77807 h -6.26121 l 0.17921,2.57986 h 1.61024 l 0.35762,4.76275 c 0,0 -31.4858,-39.30659 -31.66473,-39.50479 z m -20.71854,40.19924 c 6.28213,-5.53526 11.17197,-10.8105 14.69826,-21.36766 5.56559,5.60056 8.74106,13.70118 8.74106,22.03656 0,16.55296 -12.17159,30.05418 -27.09459,30.05418 -14.92275,0 -27.09382,-13.50122 -27.09382,-30.05418 0,-16.55353 12.17107,-30.05446 27.09382,-30.05446 4.76268,0 9.63132,1.52587 13.55711,4.09645 -2.65749,9.31423 -5.24223,14.11818 -13.41846,21.4193 -1.98486,0.0929 -3.49386,1.86048 -3.49386,3.96878 0,2.18635 1.6071,3.96904 3.57758,3.96904 1.97073,0 3.4329,-1.78269 3.4329,-4.06801 z m 78.39164,8.89924 c 3.06429,12.66719 13.96576,21.8247 26.0314,21.8247 14.92299,0 27.09485,-13.50121 27.09485,-30.05504 0,-16.55353 -12.17186,-30.05532 -27.09485,-30.05532 -4.76295,0 -10.27359,1.24727 -14.29408,3.85791 l 14.70612,21.6587 c 1.79859,0.0314 3.36461,1.81403 3.36461,3.96878 0,2.18635 -1.60788,3.96904 -3.57809,3.96904 -0.54547,0 -1.11814,-0.15497 -1.60187,-0.40773 z m -66.55544,-41.145 9.59784,-29.37104 -3.04126,-5.75552 6.08254,-7.34203 h 13.05925 l 0.17921,4.16727 h -11.44954 l -2.32575,2.77806 2.68336,5.35795 -3.37429,13.26674 h 46.86791 l 0.71577,-2.42636 c -3.76671,-0.54382 -10.26337,-3.11818 -11.81501,-4.61271 -1.55163,-1.49539 -0.19307,-2.87036 1.5744,-2.93479 9.25041,-0.43587 22.99327,-1.29545 25.60417,-1.30791 2.61014,-0.0134 2.87776,1.44315 1.13017,3.56363 -1.74758,2.1202 -3.27514,4.02941 -9.89608,5.16728 l -1.78865,5.35795 11.09009,15.24066 c 5.22756,-3.52039 11.54974,-5.35184 17.69271,-5.35184 18.42967,0 33.46097,16.67368 33.46097,37.11732 0,20.44337 -15.0313,37.11675 -33.46097,37.11675 -15.16186,0 -28.49398,-11.59867 -32.41191,-27.62956 l -10.19092,2.0314 c -0.43637,1.3326 -1.453,2.35467 -2.66767,3.15446 l 1.8177,9.56293 h 2.32547 l 0.17895,2.57987 -7.33462,0.39641 v -2.77807 h 1.78918 l -2.2156,-9.55742 c -3.29712,-0.5981 -5.02457,-3.72876 -4.04273,-6.83593 l -33.29067,-41.76515 -1.49041,4.48125 c 8.07969,7.05939 12.91589,17.93372 12.91589,29.24306 0,20.44337 -15.0313,37.11675 -33.46097,37.11675 -18.42942,0 -33.46072,-16.67338 -33.46072,-37.11675 0,-20.44364 15.0313,-37.11732 33.46072,-37.11732 5.35916,0 10.84887,1.45071 15.49147,4.20266 z"
             inkscape:connector-curvature="0" />
        </g>
      </g>
    </g>
    <g
       id="g5879"
       style="fill:#333333;fill-opacity:1"
       transform="matrix(0.38790447,0,0,0.44593256,-8.1205976,7.5342956)">
      <path
         id="path4938"
         style="fill:#333333;fill-opacity:1"
         transform="translate(-3.517253,-2.110352)"
         d="m 116.77281,500.15341 a 10.551762,10.551762 0 1 1 -21.103523,0 10.551761,10.551761 0 1 1 21.103523,0 z"
         inkscape:connector-curvature="0" />
      <path
         id="path4940"
         style="color:#000000;display:inline;overflow:visible;visibility:visible;opacity:1;fill:#333333;fill-opacity:1;fill-rule:nonzero;stroke:none;stroke-width:1;stroke-linecap:butt;stroke-linejoin:miter;stroke-miterlimit:4;stroke-dasharray:none;stroke-dashoffset:0;stroke-opacity:1;marker:none;marker-start:none;marker-mid:none;marker-end:none"
         d="m 107.62795,509.29827 -9.848309,0.70346 -4.220704,2.11035 -23.917322,37.28288 1.406901,3.51726 9.84831,0.70345 14.772463,-21.80697 -0.70345,23.91732 -28.841477,52.7588 v 3.51725 l 6.331056,0.70345 8.441408,-0.70345 26.027674,-47.13119 23.91732,49.24154 3.51726,-0.70345 4.2207,-4.92415 2.8138,-5.62761 -2.8138,-9.84831 -19.69662,-35.17253 v -31.65528 l 6.33106,6.33106 -1.4069,17.58626 2.11035,4.22071 7.0345,-2.11035 2.81381,-4.22071 2.11035,-21.10352 -16.17937,-14.06901 -8.4414,-4.22071 z"
         inkscape:connector-curvature="0" />
    </g>
  </g>
</svg>
