<svg id="Seattle_Background" data-name="Seattle Background" xmlns="http://www.w3.org/2000/svg" viewBox="0 0 842.11 433.74"><defs><style>.cls-1{fill:#90d5de;stroke:#d3d3d3;stroke-miterlimit:10;opacity:0.6;}</style></defs><title>background</title><polygon id="Background" class="cls-1" points="0.5 202.16 8.13 202.16 8.13 150.31 19.7 150.31 19.7 145.67 40.7 145.67 40.7 149.95 64.19 149.95 64.19 203.65 72.32 203.65 72.32 191.99 77.15 191.77 83.3 186.93 83.3 203.65 91.43 203.65 91.43 196.83 95.6 192.87 100.43 197.27 105.48 197.05 105.48 203.65 115.58 203.65 115.58 98.89 150.94 98.89 150.94 89.42 162.8 89.42 162.8 92.06 169.83 92.28 169.83 94.26 177.73 94.48 177.73 175.48 186.52 175.48 186.52 146.54 233.73 146.54 233.73 160.51 238.78 160.51 238.78 148.63 248.44 148.63 248.44 144.23 251.96 144.23 251.96 142.03 260.96 142.03 260.96 139.16 264.92 139.16 264.92 130.58 271.5 130.58 275.24 123.98 290.61 123.98 294.12 130.14 302.03 130.14 302.03 136.96 308.4 136.96 308.4 169.76 336.07 169.76 336.07 175.7 342.44 175.7 342.44 170.2 355.83 170.2 355.83 138.72 367.69 138.72 367.69 112.53 403.05 112.53 390.97 64.99 374.5 62.57 377.79 60.81 377.57 56.41 366.81 54.87 376.91 51.12 377.35 46.72 399.31 41.22 399.31 30.43 412.05 30.43 414.03 12.83 414.03 0.5 416.22 0.5 416.22 12.83 419.87 30.43 430.5 30.43 433.35 39.68 451.14 44.3 454 51.12 463.66 53.32 452.46 54.65 450.48 58.17 452.9 58.61 452.24 61.91 439.06 61.47 439.28 63.45 434.89 66.53 425.45 112.97 435.33 206.96 440.6 206.96 440.6 202.55 446.53 202.55 446.53 158.09 452.02 158.09 452.02 152.81 456.19 152.81 456.19 118.91 460.8 116.05 460.37 110.99 463.66 110.77 463.66 77.75 471.35 77.75 471.35 73.79 499.67 73.79 499.67 77.75 506.48 77.75 506.48 166.68 521.63 166.68 521.63 183.62 525.15 188.69 525.15 131.02 571.92 131.02 571.92 194.63 583.34 194.63 583.34 110.11 591.47 110.11 605.2 96.35 619.58 105.93 619.58 109.45 628.58 109.45 628.58 138.5 653.84 138.5 653.84 157.21 662.18 157.21 662.18 190.67 667.01 190.89 667.01 196.39 674.48 196.39 681.29 177.46 684.36 177.68 686.78 190.89 686.78 199.25 692.71 195.51 705.01 195.51 708.52 198.15 708.52 175.04 716.43 169.32 747.61 169.32 753.32 173.06 753.32 189.79 759.47 189.79 762.76 193.31 773.52 193.31 773.52 199.91 777.91 200.13 777.91 206.07 791.75 205.63 791.75 211.14 798.12 214.22 800.53 218.18 800.53 221.7 810.86 221.7 818.54 206.74 830.62 201.45 830.62 195.51 841.6 195.73 839.25 433.24 0.5 433.24 0.5 202.16"/></svg>