<svg id="Parking" xmlns="http://www.w3.org/2000/svg" viewBox="0 0 133.05 133.05"><defs><style>.cls-1{fill:#00b0f4;}</style></defs><title>Parking</title><path class="cls-1" d="M424,282.08a66.52,66.52,0,1,0,66.52,66.52A66.52,66.52,0,0,0,424,282.08Zm25.1,71.66c-6.4,5-16,6.12-27.77,6.12h-8.55v33.47H396.36V303.88h26.93q17.53,0,26.26,6.85a26.45,26.45,0,0,1,10,20.91A27.41,27.41,0,0,1,449.14,353.74Zm-6.36-22.1a11.54,11.54,0,0,1-5.35,10.24c-3.44,2.07-9.62,2.24-17,2.24h-7.62v-25h10c6.52,0,11.71.18,14.79,2.18A12.72,12.72,0,0,1,442.78,331.64Z" transform="translate(-357.52 -282.08)"/></svg>