<?xml version="1.0" encoding="UTF-8"?>
<svg width="147px" height="241px" viewBox="0 0 147 241" version="1.1" xmlns="http://www.w3.org/2000/svg" xmlns:xlink="http://www.w3.org/1999/xlink">
    <!-- Generator: Sketch 48.2 (47327) - http://www.bohemiancoding.com/sketch -->
    <title>Combined Shape</title>
    <desc>Created with Sketch.</desc>
    <defs></defs>
    <g id="Intelligent-Transportation-System" stroke="none" stroke-width="1" fill="none" fill-rule="evenodd">
        <path d="M48.3254183,188.658742 L48.9350243,189.935024 L47.6587421,189.325418 C46.526286,188.78451 45.2838534,188.5 44,188.5 L9,188.5 C4.30557963,188.5 0.5,192.30558 0.5,197 L0.5,232 C0.5,236.69442 4.30557963,240.5 9,240.5 L44,240.5 C48.6944204,240.5 52.5,236.69442 52.5,232 L52.5,197 C52.5,195.716147 52.2154903,194.473714 51.6745817,193.341258 L51.0649757,192.064976 L52.3412579,192.674582 C53.473714,193.21549 54.7161466,193.5 56,193.5 L91,193.5 C95.6944204,193.5 99.5,189.69442 99.5,185 L99.5,150 C99.5,148.716147 99.2154903,147.473714 98.6745817,146.341258 L98.0649757,145.064976 L99.3412579,145.674582 C100.473714,146.21549 101.716147,146.5 103,146.5 L138,146.5 C142.69442,146.5 146.5,142.69442 146.5,138 L146.5,103 C146.5,98.3055796 142.69442,94.5 138,94.5 L103,94.5 C101.716147,94.5 100.473714,94.7845097 99.3412579,95.3254183 L98.0649757,95.9350243 L98.6745817,94.6587421 C99.2154903,93.526286 99.5,92.2838534 99.5,91 L99.5,56 C99.5,51.3055796 95.6944204,47.5 91,47.5 L56,47.5 C54.7161466,47.5 53.473714,47.7845097 52.3412579,48.3254183 L51.0649757,48.9350243 L51.6745817,47.6587421 C52.2154903,46.526286 52.5,45.2838534 52.5,44 L52.5,9 C52.5,4.30557963 48.6944204,0.5 44,0.5 L9,0.5 C4.30557963,0.5 0.5,4.30557963 0.5,9 L0.5,44 C0.5,48.6944204 4.30557963,52.5 9,52.5 L44,52.5 C45.2838534,52.5 46.526286,52.2154903 47.6587421,51.6745817 L48.9350243,51.0649757 L48.3254183,52.3412579 C47.7845097,53.473714 47.5,54.7161466 47.5,56 L47.5,91 C47.5,95.6944204 51.3055796,99.5 56,99.5 L91,99.5 C92.2838534,99.5 93.526286,99.2154903 94.6587421,98.6745817 L95.9350243,98.0649757 L95.3254183,99.3412579 C94.7845097,100.473714 94.5,101.716147 94.5,103 L94.5,138 C94.5,139.283853 94.7845097,140.526286 95.3254183,141.658742 L95.9350243,142.935024 L94.6587421,142.325418 C93.526286,141.78451 92.2838534,141.5 91,141.5 L56,141.5 C51.3055796,141.5 47.5,145.30558 47.5,150 L47.5,185 C47.5,186.283853 47.7845097,187.526286 48.3254183,188.658742 Z" id="Combined-Shape" stroke="#979797"></path>
    </g>
</svg>