<?xml version="1.0" encoding="UTF-8"?>
<svg width="626px" height="559px" viewBox="0 0 626 559" version="1.1" xmlns="http://www.w3.org/2000/svg" xmlns:xlink="http://www.w3.org/1999/xlink">
    <!-- Generator: Sketch 46.2 (44496) - http://www.bohemiancoding.com/sketch -->
    <title>sdot 2</title>
    <desc>Created with Sketch.</desc>
    <defs></defs>
    <g id="Page-1" stroke="none" stroke-width="1" fill="none" fill-rule="evenodd">
        <g id="sdot">
            <g id="Channelization" transform="translate(270.000000, 466.000000)">
                <g id="4lane_road_icon">
                    <polygon id="Shape" fill="#2D2D2D" fill-rule="nonzero" points="71.5082051 0.00507985528 151.876186 0 152 19.4209747 142.797489 69 32 68.9344172 32.0096905 56.1894957"></polygon>
                    <path d="M0,62 L48,1" id="Shape"></path>
                    <g id="Group" transform="translate(31.000000, 0.000000)" fill-rule="nonzero" fill="#FFFFFF">
                        <polygon id="Shape" points="41.7652185 0.297503757 44.1213902 0.299489403 0.287662725 63.7577326 0.31336947 59.5680029 41.767534 0.299489403"></polygon>
                        <polygon id="Shape" points="79.3343188 0.281349676 81.3258108 0.282065753 50.1302067 68.9774712 47.5663131 68.9978603 79.3342566 0.280698185"></polygon>
                        <polygon id="Shape" points="83.2691517 0.279714189 85.2570977 0.28043527 56.6149357 68.9603001 54.0509177 68.9789488 83.2763059 0.277327162 83.2700848 0.277315662"></polygon>
                        <polygon id="Shape" points="120.844473 12.2860405 109.803612 68.9717162 107.099308 68.9717162 120.782884 0.301175676 120.844473 12.2847973 120.844473 12.2847973"></polygon>
                        <path d="M101.596452,0.0194256757 L99.4190746,7.01266892 L101.462699,7.01266892 L103.580977,0.0194256757 L101.596452,0.0194256757 Z M59.3428792,0.369087838 L55.6102314,7.01235811 L57.6507455,7.01235811 L61.3367352,0.369087838 L59.3428792,0.369087838 Z M53.3644216,10.9950878 L47.3673008,21.6499932 L49.535347,21.6499932 L55.4453728,10.9950878 L53.3644216,10.9950878 Z M98.1748586,10.9950878 L94.8621337,21.6499932 L97.0301799,21.6499932 L100.25581,10.9950878 L98.1748586,10.9950878 L98.1748586,10.9950878 Z M45.0157326,25.8459392 L39.1430334,36.2779932 L41.4292802,36.2779932 L47.2117738,25.8459392 L45.0157326,25.8459392 Z M93.5494859,25.8459392 L90.3020823,36.2779932 L92.5976607,36.2779932 L95.7548586,25.8459392 L93.5494859,25.8459392 Z M36.6546015,40.697723 L30.9109897,50.90475 L33.3201028,50.90475 L38.9781748,40.697723 L36.6546015,40.697723 Z M88.9241131,40.697723 L85.7451414,50.90475 L88.1651414,50.90475 L91.257018,40.697723 L88.9241131,40.697723 L88.9241131,40.697723 Z M28.3059126,55.5482635 L22.6195347,65.6496149 L25.1468483,65.6496149 L30.7458201,55.5482635 L28.3059126,55.5482635 Z M84.2956298,55.5482635 L81.1570951,65.6496149 L83.6921851,65.6496149 L86.7560668,55.5482635 L84.2956298,55.5482635 Z" id="Shape"></path>
                    </g>
                </g>
                <text fill="#231F20" font-family="Helvetica" font-size="14" font-weight="normal">
                    <tspan x="41" y="90">Channelization</tspan>
                </text>
            </g>
            <g id="Bike_Ped" transform="translate(246.000000, 0.000000)">
                <text id="Bicycle-and-Pedestri" fill="#231F20" font-family="Helvetica" font-size="14" font-weight="normal">
                    <tspan x="0" y="14">Bicycle and Pedestrian System</tspan>
                </text>
                <g id="Bicycle" transform="translate(65.000000, 42.000000)" fill="#000000">
                    <path d="M78.5470423,48.7392974 L94.2553714,46.1219345 L84.3554126,32.9928038 C79.223712,37.5608744 78.5854354,43.0443085 78.5470423,48.7392974 Z M74.2258354,49.6999053 C74.2005326,49.1308703 74.1110194,48.2158602 74.1110194,47.5752067 C74.1110194,41.07841 76.1695474,34.7649449 81.7565554,29.5179376 L75.9379543,22.4052144 L66.9317349,50.4555788 L74.2258354,49.6999053 L74.2258354,49.6999053 Z M39.6579634,21.7828694 L40.1572114,20.2219044 L72.2351177,20.179052 L63.7017669,46.589146 L63.3334766,43.8340557 L64.3152891,43.8340557 L64.1920457,42.0807849 L59.8986446,42.0807849 L60.0215314,43.7089632 L61.125696,43.7089632 L61.3709211,46.7147876 C61.3709211,46.7147876 39.7806583,21.907962 39.6579634,21.7828757 L39.6579634,21.7828694 Z M25.4509646,47.1530564 C29.7587109,43.6596924 33.111744,40.3304298 35.5297714,33.6676888 C39.346176,37.2022644 41.5236411,42.3146557 41.5236411,47.5752067 C41.5236411,58.0219636 33.177408,66.5427336 22.9444937,66.5427336 C12.7117509,66.5427336 4.36587429,58.0219636 4.36587429,47.5752067 C4.36587429,37.12809 12.7117509,28.607503 22.9444937,28.607503 C26.2103314,28.607503 29.5488274,29.5704965 32.2407977,31.1928181 C30.4185189,37.0711322 28.6461257,40.1029584 23.039568,44.7107764 C21.6785211,44.7694066 20.6437783,45.884946 20.6437783,47.2155175 C20.6437783,48.5953473 21.7457897,49.7204228 23.096976,49.7204228 C24.4483337,49.7204228 25.4509646,48.5953473 25.4509646,47.1530564 L25.4509646,47.1530564 Z M79.205232,52.7694657 C81.3064594,60.76387 88.7817531,66.5432764 97.0553349,66.5432764 C107.288242,66.5432764 115.634661,58.0225127 115.634661,47.5752067 C115.634661,37.12809 107.288242,28.6069603 97.0553349,28.6069603 C93.789312,28.6069603 90.0105874,29.3941262 87.25368,31.0417301 L97.3378766,44.7107764 C98.5711954,44.7305932 99.6450377,45.8556308 99.6450377,47.2155175 C99.6450377,48.5953473 98.5424914,49.7204228 97.1914903,49.7204228 C96.8174537,49.7204228 96.4247657,49.6226195 96.0930651,49.4630998 L79.205232,52.7694657 L79.205232,52.7694657 Z M33.567216,26.802399 L40.148592,8.26600933 L38.0631566,4.63363671 L42.2340411,0 L51.1889554,0 L51.3118423,2.6300104 L43.4607291,2.6300104 L41.8659291,4.38327493 L43.7059474,7.76473671 L41.3921486,16.1375237 L73.530144,16.1375237 L74.0209577,14.606221 C71.4380709,14.2630101 66.9832183,12.6383029 65.9192366,11.6950884 C64.8552617,10.7513312 65.7868457,9.88357236 66.9988251,9.84290987 C73.3419634,9.56782747 82.7656389,9.02533698 84.5559703,9.01747333 C86.3457806,9.00901644 86.5292914,9.92826133 85.330944,11.2665198 C84.1326034,12.6046016 83.0851337,13.8095252 78.5450606,14.5276476 L77.3185577,17.9091094 L84.9231909,27.5276593 C88.5078034,25.305902 92.8430126,24.1500536 97.0553349,24.1500536 C109.692823,24.1500536 120,34.6729983 120,47.5752067 C120,60.4772446 109.692823,71 97.0553349,71 C86.6586309,71 77.5166057,63.6799505 74.8300251,53.5626777 L67.8419657,54.8447168 C67.5427406,55.6857355 66.8456229,56.3307752 66.0127063,56.8355316 L67.2591291,62.8708029 L68.8537371,62.8708029 L68.9764457,64.4989876 L63.946992,64.7491663 L63.946992,62.9958955 L65.1738583,62.9958955 L63.6545897,56.9641015 C61.3937074,56.586634 60.2091703,54.6108396 60.882432,52.6498701 L38.054544,26.2914199 L37.0325486,29.1195866 C42.5729074,33.574846 45.8891589,40.4377565 45.8891589,47.5752067 C45.8891589,60.4772446 35.5819817,71 22.9444937,71 C10.3071771,71 0,60.4772446 0,47.5752067 C0,34.6729983 10.3071771,24.1500536 22.9444937,24.1500536 C26.6193463,24.1500536 30.3837189,25.0656128 33.567216,26.802399 L33.567216,26.802399 Z" id="path5490"></path>
                </g>
                <g id="pedestrian-walking" transform="translate(7.000000, 44.000000)" fill-rule="nonzero" fill="#010002">
                    <path d="M16.6828333,10.9968614 C18.2080467,10.9486915 19.4873484,10.3700745 20.5205908,9.2610104 C21.5538332,8.1519463 22.0458042,6.85005808 21.9966514,5.35534575 C21.9474986,3.86034412 21.381577,2.58261316 20.2991817,1.52200823 C19.2167865,0.461258642 17.9128346,-0.0450312197 16.3876212,0.00313864428 C14.8624078,0.0513085083 13.583106,0.629925493 12.5498636,1.7389896 C11.5166212,2.8480537 11,4.14994192 11,5.64465425 C11,7.13936657 11.565774,8.41724218 12.6974697,9.47799177 C13.8291653,10.5387414 15.1576199,11.0450312 16.6828333,10.9968614 Z" id="Shape"></path>
                    <path d="M34.8292683,29.4194589 L26.7804878,24.9907829 L20.195122,14.3619605 C18.9267805,12.787271 17.3659024,12 15.5121951,12 C14.2438537,12 13.0243902,12.5413318 11.8536585,13.6238479 L1.90243902,23.8098027 C1.6097561,24.203512 1.41468293,24.6463796 1.31707317,25.1384055 L0,36.5053405 L0,36.8005856 C0,37.4893923 0.24395122,38.0798825 0.731707317,38.572056 C1.21946341,39.0639343 1.80482927,39.3101687 2.48780488,39.3101687 C3.17078049,39.3101687 3.73170732,39.0639343 4.17073171,38.572056 C4.6097561,38.0798825 4.878,37.5386983 4.97560976,36.9482081 L6,27.2051209 L9.51219512,23.6621801 L6.29268293,50.8247263 L0.585365854,63.6680343 C0.390292683,64.2585244 0.292682927,64.7985276 0.292682927,65.2921774 C0.292682927,66.3730696 0.658536585,67.2850816 1.3902439,68.0231943 C2.12195122,68.7613069 3.02443902,69.0807621 4.09756098,68.9827407 C5.56097561,68.9827407 6.63409756,68.2921625 7.31707317,66.9160253 L13.4634146,53.0392119 C13.4634146,52.9403048 13.5121463,52.7683245 13.6097561,52.522533 C13.7075122,52.2760034 13.805122,52.0545696 13.902439,51.8582316 C14.0000488,51.6611555 14.0487805,51.4640795 14.0487805,51.2677415 L14.7804878,44.6245799 L21.0731707,66.4731577 C21.7561463,68.2446281 22.9756098,69.0810573 24.7317073,68.9827407 C25.7073659,68.9827407 26.5609756,68.6136844 27.2926829,67.8755717 C28.0243902,67.1374591 28.3902439,66.225447 28.3902439,65.1445549 C28.3902439,65.0444668 28.3658049,64.9231211 28.3170732,64.7754985 C28.2683415,64.627876 28.2439024,64.5044636 28.2439024,64.4061469 L19.4634146,34.14338 L20.4878049,24.2526703 L22.9756098,28.2384787 C23.1706829,28.5337237 23.4146341,28.7798105 23.7073171,28.9765913 L32.3414634,33.8481349 C32.9268293,34.0449158 33.317122,34.14338 33.5121951,34.14338 C34.1951707,34.14338 34.7805366,33.8727879 35.2682927,33.3314561 C35.7560488,32.7899766 36,32.1749811 36,31.4861744 C36,30.6004392 35.6097073,29.9114848 34.8292683,29.4194589 Z" id="Shape"></path>
                </g>
            </g>
            <g id="ITS" transform="translate(0.000000, 168.000000)" fill="#000000">
                <g id="traffic-light-svgrepo-com" transform="translate(114.000000, 0.000000)" fill-rule="nonzero">
                    <path d="M30.075434,0 L2.92427928,0 C1.30917337,0 0,1.30231114 0,2.90831427 L0,59.7608823 C0,61.3668855 1.30917337,62.6691966 2.92427928,62.6691966 L5.48814882,62.6691966 L5.48814882,143.091686 C5.48814882,144.697689 6.79732219,146 8.4124281,146 L24.5875719,146 C26.2026778,146 27.5118512,144.697689 27.5118512,143.091686 L27.5118512,62.6691966 L30.0757207,62.6691966 C31.6908266,62.6691966 33,61.3668855 33,59.7608823 L33,2.90831427 C32.9997133,1.30231114 31.6905399,0 30.075434,0 Z M21.6632926,140.183657 L11.3369941,140.183657 L11.3369941,62.6694818 L21.6632926,62.6694818 L21.6632926,140.183657 Z M27.1514414,56.8525681 L5.84913201,56.8525681 L5.84913201,5.81662855 L27.1514414,5.81662855 L27.1514414,56.8525681 Z" id="Shape"></path>
                    <path d="M16.5,40 C12.3644061,40 9,43.364627 9,47.4998576 C9,51.6356577 12.3646909,55 16.5,55 C20.6355939,55 24,51.635373 24,47.4998576 C24,43.3643423 20.6355939,40 16.5,40 Z M16.5,49.1914263 C15.5676261,49.1914263 14.8089687,48.4327834 14.8089687,47.5001424 C14.8089687,46.5677862 15.5676261,45.8091432 16.5,45.8091432 C17.4323739,45.8091432 18.1910313,46.5677862 18.1910313,47.5001424 C18.1910313,48.4327834 17.4323739,49.1914263 16.5,49.1914263 Z" id="Shape"></path>
                    <path d="M16.5,24 C12.3644061,24 9,27.364627 9,31.4998576 C9,35.6356577 12.3646909,39 16.5,39 C20.6355939,39 24,35.635373 24,31.4998576 C24,27.364627 20.6355939,24 16.5,24 Z M16.5,33.1914263 C15.5676261,33.1914263 14.8089687,32.4327834 14.8089687,31.5001424 C14.8089687,30.5677862 15.5676261,29.8091432 16.5,29.8091432 C17.4323739,29.8091432 18.1910313,30.5677862 18.1910313,31.5001424 C18.1910313,32.4324986 17.4323739,33.1914263 16.5,33.1914263 Z" id="Shape"></path>
                    <path d="M16.5,7 C12.3644061,7 9,10.3646909 9,14.5 C9,18.6355939 12.3646909,22 16.5,22 C20.6355939,22 24,18.6353091 24,14.5 C24,10.3646909 20.6355939,7 16.5,7 Z M16.5,16.1910313 C15.5676261,16.1910313 14.8089687,15.4323739 14.8089687,14.5 C14.8089687,13.5676261 15.5676261,12.8089687 16.5,12.8089687 C17.4323739,12.8089687 18.1910313,13.5676261 18.1910313,14.5 C18.1910313,15.4323739 17.4323739,16.1910313 16.5,16.1910313 Z" id="Shape"></path>
                    <path d="M16,108 C14.3430729,108 13,109.298312 13,110.899383 L13,136.100617 C13,137.701688 14.3430729,139 16,139 C17.6569271,139 19,137.701688 19,136.100617 L19,110.899383 C19,109.298596 17.6569271,108 16,108 Z" id="Shape"></path>
                    <path d="M16,95 C14.3430729,95 13,96.2506846 13,97.7930222 L13,102.206978 C13,103.749589 14.3430729,105 16,105 C17.6569271,105 19,103.749315 19,102.206978 L19,97.7930222 C19,96.2506846 17.6569271,95 16,95 Z" id="Shape"></path>
                </g>
                <text id="Intelligent-Transpor" font-family="Helvetica" font-size="14" font-weight="normal">
                    <tspan x="0" y="50">Intelligent </tspan>
                    <tspan x="0" y="67">Transportation </tspan>
                    <tspan x="0" y="84">System</tspan>
                </text>
            </g>
            <g id="Parking" transform="translate(462.000000, 241.000000)">
                <g id="noun_293809_cc" fill-rule="nonzero" fill="#000000">
                    <path d="M9,15 C12,6 15,6 18,6 L27,6 L42,6 L51,6 C54,6 57,6 60,15 L63,15 C66.314,15 69,17.686 69,21 C69,23.248 67.764,25.206 65.934,26.234 C67.813,27.883 69,30.303 69,33 L69,42 C69,43.75 67.862,45.159 66,46.295 L66,54 C66,55.657 64.657,57 63,57 L57,57 C55.343,57 54,55.657 54,54 L54,49.794 C45.781,51 36.802,51 34.5,51 C32.198,51 23.22,50.999 15,49.794 L15,54 C15,55.657 13.657,57 12,57 L6,57 C4.343,57 3,55.657 3,54 L3,46.295 C1.138,45.16 0,43.75 0,42 L0,33 C0,30.303 1.186,27.883 3.066,26.234 C1.236,25.206 0,23.248 0,21 C0,17.686 2.686,15 6,15 L9,15 L9,15 Z M82.5,0 C88.299,0 93,4.701 93,10.5 C93,18 90,27 87,27 L84,27 L84,54 L88.5,54 C89.328,54 90,54.672 90,55.5 C90,56.328 89.328,57 88.5,57 L84,57 L81,57 L76.5,57 C75.672,57 75,56.328 75,55.5 C75,54.672 75.672,54 76.5,54 L81,54 L81,27 L78,27 C75,27 72,18 72,10.5 C72,4.701 76.701,0 82.5,0 L82.5,0 Z M78,10.5 C78,11.326 78.674,12 79.5,12 C80.326,12 81,11.326 81,10.5 C81,9.577 81.57,9 82.5,9 C83.434,9.021 84,9.534 84,10.5 C84,11.326 84.674,12 85.5,12 C86.326,12 87,11.326 87,10.5 C87,7.897 85.069,6 82.5,6 C79.93,6 78,7.897 78,10.5 L78,10.5 Z M43.5,39 L25.5,39 C24.672,39 24,39.672 24,40.5 C24,41.328 24.672,42 25.5,42 L43.5,42 C44.328,42 45,41.328 45,40.5 C45,39.672 44.328,39 43.5,39 L43.5,39 Z M57,30 C53.686,30 51,32.686 51,36 C51,39.314 53.686,42 57,42 C60.314,42 63,39.314 63,36 C63,32.686 60.314,30 57,30 L57,30 Z M12,30 C8.686,30 6,32.686 6,36 C6,39.314 8.686,42 12,42 C15.314,42 18,39.314 18,36 C18,32.686 15.314,30 12,30 L12,30 Z M22.5,33 C21.672,33 21,33.672 21,34.5 C21,35.328 21.672,36 22.5,36 L46.5,36 C47.328,36 48,35.328 48,34.5 C48,33.672 47.328,33 46.5,33 L22.5,33 L22.5,33 Z M59.838,24 L57.154,15.949 C56.558,14.162 55.291,10.718 53.7,9.525 C52.918,8.938 51.932,9 51,9 L18,9 C17.068,9 16.082,8.939 15.3,9.525 C13.709,10.718 12.442,14.161 11.846,15.949 L9.162,24 L15,24 L54,24 L59.838,24 Z" id="Shape"></path>
                </g>
                <text id="Parking-Payment-Devi" fill="#231F20" font-family="Helvetica" font-size="14" font-weight="normal">
                    <tspan x="105" y="19">Parking </tspan>
                    <tspan x="105" y="36">Payment </tspan>
                    <tspan x="105" y="53">Devices</tspan>
                </text>
            </g>
        </g>
    </g>
</svg>