<?xml version="1.0" encoding="UTF-8"?>
<svg width="245px" height="292px" viewBox="0 0 245 292" version="1.1" xmlns="http://www.w3.org/2000/svg" xmlns:xlink="http://www.w3.org/1999/xlink">
    <!-- Generator: Sketch 48.2 (47327) - http://www.bohemiancoding.com/sketch -->
    <title>Combined Shape</title>
    <desc>Created with Sketch.</desc>
    <defs></defs>
    <g id="Traffic-Safety-Structures-&amp;-Devices" stroke="none" stroke-width="1" fill="none" fill-rule="evenodd">
        <path d="M198.949348,47.5 L126.5,8.29795552 L126.5,2.5638852 C126.5,1.82655093 126.44602,1.54701959 126.291961,1.25895373 C126.164254,1.02016204 125.979838,0.835746496 125.741046,0.708039303 C125.45298,0.553979991 125.173449,0.5 124.436115,0.5 L100.563885,0.5 C99.8265509,0.5 99.5470196,0.553979991 99.2589537,0.708039303 C99.020162,0.835746496 98.8357465,1.02016204 98.7080393,1.25895373 C98.55398,1.54701959 98.5,1.82655093 98.5,2.5638852 L98.5,251.436115 C98.5,252.173449 98.55398,252.45298 98.7080393,252.741046 C98.8357465,252.979838 99.020162,253.164254 99.2589537,253.291961 C99.5470196,253.44602 99.8265509,253.5 100.563885,253.5 L100.563885,254.5 L2,254.5 C1.17157288,254.5 0.5,255.171573 0.5,256 L0.5,290 C0.5,290.828427 1.17157288,291.5 2,291.5 L243,291.5 C243.828427,291.5 244.5,290.828427 244.5,290 L244.5,256 C244.5,255.171573 243.828427,254.5 243,254.5 L124.436115,254.5 L124.436115,253.5 C125.173449,253.5 125.45298,253.44602 125.741046,253.291961 C125.979838,253.164254 126.164254,252.979838 126.291961,252.741046 C126.44602,252.45298 126.5,252.173449 126.5,251.436115 L126.5,180.702044 L198.949348,141.5 L126.5,102.297956 L126.5,86.7020445 L198.949348,47.5 Z" id="Combined-Shape" stroke="#979797"></path>
    </g>
</svg>