<?xml version="1.0" encoding="UTF-8"?>
<svg width="268px" height="280px" viewBox="0 0 268 280" version="1.1" xmlns="http://www.w3.org/2000/svg" xmlns:xlink="http://www.w3.org/1999/xlink">
    <!-- Generator: Sketch 48.2 (47327) - http://www.bohemiancoding.com/sketch -->
    <title>Combined Shape</title>
    <desc>Created with Sketch.</desc>
    <defs></defs>
    <g id="Bridges-and-Structures" stroke="none" stroke-width="1" fill="none" fill-rule="evenodd">
        <path d="M3,1 L267,1 L267,75.0194071 C266.334889,75.0064889 265.668202,75 265,75 C209.21924,75 164,120.21924 164,176 C164,213.187173 163.666667,247.520506 163,279 L105,279 C104.333333,211.002326 104,176.668993 104,176 C104,120.21924 58.7807597,75 3,75 C2.33179791,75 1.66511139,75.0064889 1,75.0194071 L1,3 L3,1 Z M29.5638852,14 C28.6723665,14 28.3490802,14.0928256 28.0231543,14.2671327 C27.6972284,14.4414398 27.4414398,14.6972284 27.2671327,15.0231543 C27.0928256,15.3490802 27,15.6723665 27,16.5638852 L27,53.4361148 C27,54.3276335 27.0928256,54.6509198 27.2671327,54.9768457 C27.4414398,55.3027716 27.6972284,55.5585602 28.0231543,55.7328673 C28.3490802,55.9071744 28.6723665,56 29.5638852,56 L60.4361148,56 C61.3276335,56 61.6509198,55.9071744 61.9768457,55.7328673 C62.3027716,55.5585602 62.5585602,55.3027716 62.7328673,54.9768457 C62.9071744,54.6509198 63,54.3276335 63,53.4361148 L63,16.5638852 C63,15.6723665 62.9071744,15.3490802 62.7328673,15.0231543 C62.5585602,14.6972284 62.3027716,14.4414398 61.9768457,14.2671327 C61.6509198,14.0928256 61.3276335,14 60.4361148,14 L29.5638852,14 Z M89.5638852,14 C88.6723665,14 88.3490802,14.0928256 88.0231543,14.2671327 C87.6972284,14.4414398 87.4414398,14.6972284 87.2671327,15.0231543 C87.0928256,15.3490802 87,15.6723665 87,16.5638852 L87,53.4361148 C87,54.3276335 87.0928256,54.6509198 87.2671327,54.9768457 C87.4414398,55.3027716 87.6972284,55.5585602 88.0231543,55.7328673 C88.3490802,55.9071744 88.6723665,56 89.5638852,56 L120.436115,56 C121.327634,56 121.65092,55.9071744 121.976846,55.7328673 C122.302772,55.5585602 122.55856,55.3027716 122.732867,54.9768457 C122.907174,54.6509198 123,54.3276335 123,53.4361148 L123,16.5638852 C123,15.6723665 122.907174,15.3490802 122.732867,15.0231543 C122.55856,14.6972284 122.302772,14.4414398 121.976846,14.2671327 C121.65092,14.0928256 121.327634,14 120.436115,14 L89.5638852,14 Z M151.563885,14 C150.672366,14 150.34908,14.0928256 150.023154,14.2671327 C149.697228,14.4414398 149.44144,14.6972284 149.267133,15.0231543 C149.092826,15.3490802 149,15.6723665 149,16.5638852 L149,53.4361148 C149,54.3276335 149.092826,54.6509198 149.267133,54.9768457 C149.44144,55.3027716 149.697228,55.5585602 150.023154,55.7328673 C150.34908,55.9071744 150.672366,56 151.563885,56 L182.436115,56 C183.327634,56 183.65092,55.9071744 183.976846,55.7328673 C184.302772,55.5585602 184.55856,55.3027716 184.732867,54.9768457 C184.907174,54.6509198 185,54.3276335 185,53.4361148 L185,16.5638852 C185,15.6723665 184.907174,15.3490802 184.732867,15.0231543 C184.55856,14.6972284 184.302772,14.4414398 183.976846,14.2671327 C183.65092,14.0928256 183.327634,14 182.436115,14 L151.563885,14 Z M211.563885,14 C210.672366,14 210.34908,14.0928256 210.023154,14.2671327 C209.697228,14.4414398 209.44144,14.6972284 209.267133,15.0231543 C209.092826,15.3490802 209,15.6723665 209,16.5638852 L209,53.4361148 C209,54.3276335 209.092826,54.6509198 209.267133,54.9768457 C209.44144,55.3027716 209.697228,55.5585602 210.023154,55.7328673 C210.34908,55.9071744 210.672366,56 211.563885,56 L242.436115,56 C243.327634,56 243.65092,55.9071744 243.976846,55.7328673 C244.302772,55.5585602 244.55856,55.3027716 244.732867,54.9768457 C244.907174,54.6509198 245,54.3276335 245,53.4361148 L245,16.5638852 C245,15.6723665 244.907174,15.3490802 244.732867,15.0231543 C244.55856,14.6972284 244.302772,14.4414398 243.976846,14.2671327 C243.65092,14.0928256 243.327634,14 242.436115,14 L211.563885,14 Z" id="Combined-Shape" stroke="#979797"></path>
    </g>
</svg>