<?xml version="1.0" encoding="UTF-8"?>
<svg width="110px" height="83px" viewBox="0 0 110 83" version="1.1" xmlns="http://www.w3.org/2000/svg" xmlns:xlink="http://www.w3.org/1999/xlink">
    <!-- Generator: Sketch 48.2 (47327) - http://www.bohemiancoding.com/sketch -->
    <title>Combined Shape</title>
    <desc>Created with Sketch.</desc>
    <defs></defs>
    <g id="Channelization" stroke="none" stroke-width="1" fill="none" fill-rule="evenodd">
        <path d="M51.4935065,82 L1,82 L29.0519481,5.70058873 L29.0519481,3.79310345 C29.0519481,2.25051501 30.3078765,1 31.8571429,1 L51.4935065,1 L51.4935065,6.5862069 L59.9090909,6.5862069 L59.9090909,1 L76.7402597,1 C78.2895261,1 79.5454545,2.25051501 79.5454545,3.79310345 L79.5454545,5.70058873 L80.2467532,3.79310345 L109,82 L59.9090909,82 L59.9090909,70.8275862 L51.4935065,70.8275862 L51.4935065,82 Z M51,15 L51,26 L59,26 L59,15 L51,15 Z M51,53 L51,64 L59,64 L59,53 L51,53 Z M51,35 L51,46 L59,46 L59,35 L51,35 Z" id="Combined-Shape" stroke="#979797"></path>
    </g>
</svg>