<svg id="SDOT_BACKGROUND" data-name="SDOT BACKGROUND" xmlns="http://www.w3.org/2000/svg" viewBox="0 0 843.89 539.21"><defs><style>.cls-1{fill:#b2b2b2;}.cls-2{fill:#727272;}.cls-12,.cls-16,.cls-18,.cls-23,.cls-27,.cls-3,.cls-30,.cls-32,.cls-33,.cls-35,.cls-4,.cls-5,.cls-7{fill:none;}.cls-3,.cls-5,.cls-7{stroke:#727272;}.cls-12,.cls-16,.cls-18,.cls-23,.cls-27,.cls-3,.cls-32,.cls-33,.cls-35,.cls-38,.cls-4,.cls-5,.cls-7{stroke-miterlimit:10;}.cls-4{stroke:#898989;}.cls-4,.cls-7{stroke-width:2px;}.cls-5{stroke-width:3px;}.cls-17,.cls-6{fill:#33f;}.cls-8{fill:#cecece;}.cls-9{fill:#bcbcbc;}.cls-10,.cls-17{font-size:7px;}.cls-10,.cls-13{fill:#fff0f0;}.cls-10,.cls-13,.cls-17,.cls-22,.cls-31{font-family:Open Sans;}.cls-11{font-size:3px;}.cls-12{stroke:#444;}.cls-13{font-size:2px;}.cls-14{fill:#606060;}.cls-15,.cls-22,.cls-31{fill:#fff;}.cls-16{stroke:#020202;}.cls-18{stroke:#33f;}.cls-19{fill:#ce9300;}.cls-20{fill:#c6c6c6;}.cls-21{fill:#c12332;}.cls-22{font-size:10px;}.cls-22,.cls-31{letter-spacing:1px;}.cls-23{stroke:#40b1f0;}.cls-24{fill:#00b0f0;}.cls-25{fill:#4c4c4c;}.cls-26{fill:#034908;}.cls-27{stroke:#5b5b5b;}.cls-28{fill:#5cdcff;}.cls-29{fill:#a5583d;}.cls-31{font-size:14px;}.cls-32,.cls-33,.cls-35{stroke:#2d2d2d;}.cls-32{stroke-width:20px;}.cls-33{stroke-width:15px;}.cls-34{fill:#2d2d2d;}.cls-35{stroke-width:9px;}.cls-36{fill:#f4f4f4;}.cls-37,.cls-38{fill:#34a500;}.cls-38{stroke:#fcfcfc;}</style></defs><title>Final SVG</title><polygon id="PAVEMENT_SYSTEM" data-name="PAVEMENT SYSTEM" class="cls-1" points="682.14 428.05 265.15 428.05 434.85 250.34 512.44 250.34 682.14 428.05"/><rect class="cls-2" x="0.5" y="424.48" width="245.17" height="14.83"/><rect class="cls-3" x="0.5" y="417.63" width="245.17" height="21.69"/><line class="cls-4" x1="720.18" y1="300.56" x2="720.18" y2="415.71"/><rect class="cls-5" x="2.01" y="435.23" width="840.38" height="102.47"/><path id="TRANSIT_SYSTEM" data-name="TRANSIT SYSTEM" class="cls-6" d="M2254.43,554.83l3.39-5.67h25.57l3.4,5.67h-32.36Zm-1.1-19.54a5.51,5.51,0,0,1-1.35-3.84,5.59,5.59,0,0,1,1.35-3.76,4.33,4.33,0,0,1,3.44-1.59,4.2,4.2,0,0,1,3.29,1.59,5.66,5.66,0,0,1,1.35,3.76,5.57,5.57,0,0,1-1.35,3.84,4.29,4.29,0,0,1-3.29,1.51,4.43,4.43,0,0,1-3.44-1.51m-1-45.39a5.56,5.56,0,0,1,1.35-3.85,4.37,4.37,0,0,1,3.43-1.5h27.06a4.63,4.63,0,0,1,3.52,1.5,5.36,5.36,0,0,1,1.43,3.85v13.47a5.34,5.34,0,0,1-1.43,3.85,4.63,4.63,0,0,1-3.52,1.49h-27.06a4.37,4.37,0,0,1-3.43-1.49,5.54,5.54,0,0,1-1.35-3.85V489.91Zm35.58,45.39a4.4,4.4,0,0,1-3.43,1.51,4.25,4.25,0,0,1-3.29-1.51,5.55,5.55,0,0,1-1.35-3.84,5.64,5.64,0,0,1,1.35-3.76,4.16,4.16,0,0,1,3.29-1.59,4.29,4.29,0,0,1,3.43,1.59,5.63,5.63,0,0,1,1.35,3.76,5.55,5.55,0,0,1-1.35,3.84m4.35,28.57h7.31l-13-21.55a9.8,9.8,0,0,0,6.2-3.84,11.85,11.85,0,0,0,2.48-7.52V488.84a11.64,11.64,0,0,0-3-8,9.5,9.5,0,0,0-7.33-3.33h-28.56a9.45,9.45,0,0,0-7.33,3.33,11.64,11.64,0,0,0-3,8v42.11a12,12,0,0,0,2.55,7.61,9.26,9.26,0,0,0,6.13,3.76l-13,21.55H2249l1.24-2.07H2291Z" transform="translate(-1721.39 -29.62)"/><line class="cls-7" x1="194.94" y1="435.44" x2="194.94" y2="537.71"/><line class="cls-7" x1="286.91" y1="438.66" x2="286.91" y2="537.71"/><line class="cls-7" x1="466.29" y1="438.66" x2="466.29" y2="537.71"/><rect class="cls-3" x="177.46" y="428.67" width="525.59" height="10"/><rect class="cls-8" x="686.11" y="290.67" width="32.6" height="44.73" rx="3.99" ry="3.99"/><rect class="cls-9" x="686.11" y="306.92" width="32.6" height="13.34"/><text class="cls-10" transform="translate(700.4 314.28)">2<tspan class="cls-11"><tspan x="-5.62" y="3.6">Hours Max</tspan></tspan></text><circle class="cls-12" cx="701.95" cy="298.6" r="6.56"/><rect class="cls-8" x="686.11" y="320.26" width="32.6" height="4.81"/><text class="cls-13" transform="translate(691.05 323.7)">Pay 8am - 8pm Mon- Sat </text><path class="cls-14" d="M2423.91,325.91h-1.38V328h1.38A1,1,0,1,0,2423.91,325.91Z" transform="translate(-1721.39 -29.62)"/><path class="cls-14" d="M2423.34,322.73a5.59,5.59,0,1,0,5.59,5.59A5.59,5.59,0,0,0,2423.34,322.73Zm0.65,6.58h-1.45v2.84h-1.48v-7.56H2424A2.36,2.36,0,1,1,2424,329.31Z" transform="translate(-1721.39 -29.62)"/><path class="cls-15" d="M2424,324.59h-2.93v7.56h1.48v-2.84H2424A2.36,2.36,0,1,0,2424,324.59Zm-0.07,3.39h-1.38v-2.07h1.38A1,1,0,1,1,2423.91,328Z" transform="translate(-1721.39 -29.62)"/><text x="-1721.39" y="-29.62"/><rect class="cls-2" x="701.62" y="422.74" width="140.77" height="13.66"/><polygon class="cls-3" points="842.39 422.82 701.98 422.82 701.98 417.02 713.98 417.02 842.39 417.02 842.39 422.82"/><line class="cls-3" x1="714.22" y1="416.18" x2="714.22" y2="422.74"/><path class="cls-16" d="M2147.53,408.61" transform="translate(-1721.39 -29.62)"/><line class="cls-7" x1="645.38" y1="438.66" x2="645.38" y2="537.71"/><polygon class="cls-2" points="434.85 250.34 430.79 250.34 245.68 428.44 265.15 428.05 434.85 250.34"/><polygon class="cls-2" points="512.44 250.34 516.5 250.34 701.62 428.44 682.14 428.05 512.44 250.34"/><path class="cls-15" d="M2236.6,383c-3.73,2.87-7.91-.32-7-4a4.11,4.11,0,0,1,3-3C2236.27,375.08,2239.47,379.26,2236.6,383Zm-4.19-15.27c1.35-2.86,2.61-5.88,4.21-9.16,0.84-1.51,1.94-2.94,3.7-3.11H2268c1.85,0.17,2.86,1.6,3.79,3.11,1.6,3.28,2.86,6.3,4.21,9.16h-43.58Zm42.32,16.38a4.12,4.12,0,1,1,4.12-4.12A4.12,4.12,0,0,1,2274.73,384.09Z" transform="translate(-1721.39 -29.62)"/><path class="cls-15" d="M2236.6,383c-3.73,2.87-7.91-.32-7-4a4.11,4.11,0,0,1,3-3C2236.27,375.08,2239.47,379.26,2236.6,383Zm-4.19-15.27c1.35-2.86,2.61-5.88,4.21-9.16,0.84-1.51,1.94-2.94,3.7-3.11H2268c1.85,0.17,2.86,1.6,3.79,3.11,1.6,3.28,2.86,6.3,4.21,9.16h-43.58Zm42.32,16.38a4.12,4.12,0,1,1,4.12-4.12A4.12,4.12,0,0,1,2274.73,384.09Z" transform="translate(-1721.39 -29.62)"/><path class="cls-2" d="M2285.66,364.55h-6.31l-4-9.25c-2.52-3.45-4.29-4.54-7.32-4.54h-27.68c-2.94,0-4.8,1.09-7.24,4.54l-4.12,9.25h-6.31c-0.93,0-2.69,5.13,3.87,5.3l-2.19,5.38c0,6.73.08,13.55,0.08,20.28a2.48,2.48,0,0,0,2.52,2.52h8.5a2.48,2.48,0,0,0,2.52-2.52v-5.64h32.39v5.64a2.53,2.53,0,0,0,2.52,2.52h8.58a2.48,2.48,0,0,0,2.52-2.52c0-6.73.08-13.55,0.08-20.28l-2.27-5.38C2288.44,369.68,2286.59,364.55,2285.66,364.55Zm-52.08,19.35a4.12,4.12,0,1,1,4.12-4.12A4.13,4.13,0,0,1,2233.58,383.9Zm-1.18-16.41c1.35-2.86,2.61-5.89,4.21-9.17,0.84-1.51,1.94-2.94,3.7-3.11H2268c1.85,0.17,2.86,1.6,3.79,3.11,1.6,3.28,2.86,6.31,4.21,9.17h-43.58Zm42.32,16.41a4.12,4.12,0,1,1,4.12-4.12A4.12,4.12,0,0,1,2274.73,383.9Z" transform="translate(-1721.39 -29.62)"/><path class="cls-2" d="M2140.11,419.48a5.22,5.22,0,1,1,5.25-5.25,5.24,5.24,0,0,1-5.25,5.25m-26.3-23.75h-27.67c-2.7,0-3.27-1.92-3-3.87l2.85-20.48c0.39-2.47,1.23-4.1,4.48-4.13h47.44c3.23,0,4.08,1.66,4.48,4.13l2.85,20.48c0.25,2-.32,3.9-3,3.87h-28.44Zm-25.58,23.75a5.22,5.22,0,1,1,5.25-5.25,5.23,5.23,0,0,1-5.25,5.25m10.45-61.41h31a2.29,2.29,0,0,1,0,4.59h-31a2.29,2.29,0,0,1,0-4.59m49.53,6.52c-1-5.11-4.27-7.14-9.17-9.17s-16.32-4.4-24.84-4.47-20.07,2.46-24.89,4.48-8.12,4.07-9.12,9.17l-3.67,28.18v38.88h6.32v6.06c0,7.45,10.85,7.45,10.85,0v-6.06h41v6.06c0,7.45,10.86,7.45,10.85,0v-6.06h6.32V392.77Z" transform="translate(-1721.39 -29.62)"/><text class="cls-17" transform="translate(651.63 456.47)">Inter’tional District Transit Tunnel<tspan x="45.13" y="8.4">8 min</tspan><tspan x="43.13" y="16.8">14 min</tspan></text><rect class="cls-18" x="645.38" y="446.77" width="121.84" height="31.87"/><g id="Traffic_Safety_Structure_Devices" data-name="Traffic Safety Structure &amp; Devices"><path class="cls-19" d="M2289.16,302.84l-0.62-1.86h-9.33l-0.62,1.86h-1.77v1.94h14.1v-1.94h-1.77Z" transform="translate(-1721.39 -29.62)"/><path class="cls-19" d="M2287.17,296.85l-0.46-1.38H2281l-0.46,1.38-0.46,1.38h7.51Z" transform="translate(-1721.39 -29.62)"/><path class="cls-19" d="M2284.89,290h-2l-0.91,2.75h3.86Z" transform="translate(-1721.39 -29.62)"/><path class="cls-19" d="M2318.08,328.31l-1-3h-15.22l-1,3H2298v3.16h23v-3.16h-2.88Z" transform="translate(-1721.39 -29.62)"/><path class="cls-19" d="M2314.85,318.53l-0.74-2.25h-9.27l-0.74,2.25-0.74,2.24h12.25Z" transform="translate(-1721.39 -29.62)"/><path class="cls-19" d="M2311.13,307.3h-3.32l-1.49,4.49h6.3Z" transform="translate(-1721.39 -29.62)"/><path class="cls-19" d="M2264.36,287.4l-0.39-1.19H2258l-0.39,1.19h-1.13v1.24h9V287.4h-1.13Z" transform="translate(-1721.39 -29.62)"/><path class="cls-19" d="M2263.1,283.58l-0.29-.88h-3.62l-0.29.88-0.29.88h4.78Z" transform="translate(-1721.39 -29.62)"/><path class="cls-19" d="M2261.65,279.19h-1.3l-0.58,1.75h2.46Z" transform="translate(-1721.39 -29.62)"/></g><g id="Signs"><rect class="cls-20" x="403.41" y="231.97" width="1.84" height="35.2"/><polygon class="cls-20" points="422.63 226.96 411.91 237.67 396.76 237.67 386.04 226.96 386.04 211.8 396.76 201.08 411.91 201.08 422.63 211.8 422.63 226.96"/><polygon class="cls-21" points="420.65 226.13 411.09 235.69 397.58 235.69 388.02 226.13 388.02 212.62 397.58 203.06 411.09 203.06 420.65 212.62 420.65 226.13"/><text class="cls-22" transform="translate(390.42 223.01)">STOP</text></g><path class="cls-2" d="M2446.8,546.15a1.69,1.69,0,0,1,.06-1.88c4.43-6.12,4.51-14.43,4.51-14.51a5.39,5.39,0,0,1,.1-1.43,2.19,2.19,0,0,1,2.81-1.31c0.27,0.1,6.73,2.51,9.08,8.6,1.47,3.81,1,8.1-1.37,12.73a31.42,31.42,0,0,0,.34,15.7,2.19,2.19,0,0,1-4.2,1.25,35.16,35.16,0,0,1-.3-18.35l0,0L2454,536a28.09,28.09,0,0,1-4,9.6,3,3,0,0,1,1.81,2.75,0.84,0.84,0,0,1-1.69,0,1.32,1.32,0,0,0-2.65,0v18.36a0.84,0.84,0,1,1-1.69,0V548.37a3,3,0,0,1,1-2.23" transform="translate(-1721.39 -29.62)"/><path class="cls-2" d="M2448,519.92a4.3,4.3,0,1,1-4.29,4.29,4.3,4.3,0,0,1,4.29-4.29" transform="translate(-1721.39 -29.62)"/><path class="cls-2" d="M2477.16,517.8a3.89,3.89,0,1,1-3.89,3.89,3.89,3.89,0,0,1,3.89-3.89" transform="translate(-1721.39 -29.62)"/><path class="cls-2" d="M2472.56,563.29a2.18,2.18,0,0,0,4.36,0V545h1v18.29a2.18,2.18,0,1,0,4.36,0V531.75h1v11.62a1.54,1.54,0,1,0,3,0V531.5c0-2.58-1.52-5.11-4.54-5.11H2473c-2.75,0-4.48,2.25-4.48,5v11.94a1.55,1.55,0,1,0,3.07,0V531.75h1v31.53Z" transform="translate(-1721.39 -29.62)"/><path class="cls-15" d="M2228.08,328.85a2.31,2.31,0,0,1-3.84-2.21,2.25,2.25,0,0,1,1.63-1.62A2.31,2.31,0,0,1,2228.08,328.85Zm-2.29-8.36c0.74-1.56,1.43-3.22,2.3-5a2.79,2.79,0,0,1,2-1.7h15.16a2.86,2.86,0,0,1,2.07,1.7c0.88,1.79,1.57,3.45,2.3,5h-23.87Zm23.18,9a2.25,2.25,0,1,1,2.26-2.25A2.26,2.26,0,0,1,2249,329.46Z" transform="translate(-1721.39 -29.62)"/><path class="cls-15" d="M2228.08,328.85a2.31,2.31,0,0,1-3.84-2.21,2.25,2.25,0,0,1,1.63-1.62A2.31,2.31,0,0,1,2228.08,328.85Zm-2.29-8.36c0.74-1.56,1.43-3.22,2.3-5a2.79,2.79,0,0,1,2-1.7h15.16a2.86,2.86,0,0,1,2.07,1.7c0.88,1.79,1.57,3.45,2.3,5h-23.87Zm23.18,9a2.25,2.25,0,1,1,2.26-2.25A2.26,2.26,0,0,1,2249,329.46Z" transform="translate(-1721.39 -29.62)"/><path class="cls-2" d="M2255,318.75h-3.46l-2.21-5.07c-1.38-1.89-2.35-2.49-4-2.49h-15.16c-1.61,0-2.63.6-4,2.49l-2.26,5.07h-3.46c-0.51,0-1.47,2.81,2.12,2.9l-1.2,2.95c0,3.69,0,7.42,0,11.11a1.36,1.36,0,0,0,1.38,1.38h4.65a1.36,1.36,0,0,0,1.38-1.38v-3.09h17.74v3.09a1.39,1.39,0,0,0,1.38,1.38h4.7a1.36,1.36,0,0,0,1.38-1.38c0-3.69,0-7.42,0-11.11l-1.24-2.95C2256.48,321.56,2255.46,318.75,2255,318.75Zm-28.52,10.6a2.26,2.26,0,1,1,2.26-2.26A2.26,2.26,0,0,1,2226.43,329.35Zm-0.65-9c0.74-1.57,1.43-3.23,2.3-5a2.79,2.79,0,0,1,2-1.7h15.16a2.86,2.86,0,0,1,2.07,1.7c0.88,1.8,1.57,3.46,2.3,5h-23.87Zm23.18,9a2.26,2.26,0,1,1,2.26-2.26A2.26,2.26,0,0,1,2249,329.35Z" transform="translate(-1721.39 -29.62)"/><path class="cls-15" d="M2160.67,291.18a1.25,1.25,0,0,1-2.08-1.2,1.22,1.22,0,0,1,.88-0.88A1.25,1.25,0,0,1,2160.67,291.18Zm-1.25-4.54c0.4-.85.78-1.75,1.25-2.72a1.51,1.51,0,0,1,1.1-.92H2170a1.55,1.55,0,0,1,1.13.92c0.48,1,.85,1.87,1.25,2.72h-13Zm12.58,4.87a1.22,1.22,0,1,1,1.23-1.22A1.22,1.22,0,0,1,2172,291.51Z" transform="translate(-1721.39 -29.62)"/><path class="cls-15" d="M2160.67,291.18a1.25,1.25,0,0,1-2.08-1.2,1.22,1.22,0,0,1,.88-0.88A1.25,1.25,0,0,1,2160.67,291.18Zm-1.25-4.54c0.4-.85.78-1.75,1.25-2.72a1.51,1.51,0,0,1,1.1-.92H2170a1.55,1.55,0,0,1,1.13.92c0.48,1,.85,1.87,1.25,2.72h-13Zm12.58,4.87a1.22,1.22,0,1,1,1.23-1.22A1.22,1.22,0,0,1,2172,291.51Z" transform="translate(-1721.39 -29.62)"/><path class="cls-2" d="M2175.26,285.7h-1.88l-1.2-2.75a2.45,2.45,0,0,0-2.18-1.35h-8.23a2.42,2.42,0,0,0-2.15,1.35l-1.23,2.75h-1.88c-0.28,0-.8,1.53,1.15,1.58l-0.65,1.6c0,2,0,4,0,6a0.74,0.74,0,0,0,.75.75h2.53a0.74,0.74,0,0,0,.75-0.75v-1.68h9.63v1.68a0.75,0.75,0,0,0,.75.75H2174a0.74,0.74,0,0,0,.75-0.75c0-2,0-4,0-6l-0.68-1.6C2176.08,287.22,2175.53,285.7,2175.26,285.7Zm-15.48,5.75a1.23,1.23,0,1,1,1.23-1.23A1.23,1.23,0,0,1,2159.78,291.45Zm-0.35-4.88c0.4-.85.78-1.75,1.25-2.73a1.52,1.52,0,0,1,1.1-.93H2170a1.55,1.55,0,0,1,1.13.93c0.48,1,.85,1.88,1.25,2.73h-13Zm12.58,4.88a1.23,1.23,0,1,1,1.23-1.23A1.23,1.23,0,0,1,2172,291.45Z" transform="translate(-1721.39 -29.62)"/><rect class="cls-15" x="375.01" y="328.45" width="35.6" height="4.59" rx="2.26" ry="2.26"/><circle class="cls-15" cx="366.87" cy="384.63" r="5.2"/><circle class="cls-15" cx="419.13" cy="384.78" r="5.2"/><path class="cls-15" d="M2142.25,395.73l-56.68,0c-2,0-2.43-1.79-2.43-3.84l3-20.47a3.74,3.74,0,0,1,3.73-3.73h48.66a3.74,3.74,0,0,1,3.73,3.73l3,20.47C2145.26,393.91,2145.13,395.73,2142.25,395.73Z" transform="translate(-1721.39 -29.62)"/><g id="BIKE_AND_PEDESTRIAN" data-name="BIKE AND PEDESTRIAN"><path class="cls-23" d="M2550.61,426.55c0-5.64-4.28-10.22-9.55-10.22s-9.56,4.58-9.56,10.22v20.17h19.11V426.55Z" transform="translate(-1721.39 -29.62)"/><path class="cls-23" d="M2560.16,427c0-5.64-4.28-10.22-9.55-10.22s-9.56,4.58-9.56,10.22v20.17h19.11V427Z" transform="translate(-1721.39 -29.62)"/><path class="cls-24" d="M2507.53,436.48h-4.07a0.42,0.42,0,0,0-.3.48v0.82a0.42,0.42,0,0,0,.3.48h4.07a0.42,0.42,0,0,0,.3-0.48V437a0.42,0.42,0,0,0-.3-0.48" transform="translate(-1721.39 -29.62)"/><path class="cls-24" d="M2513.11,384.6a3.87,3.87,0,1,1-3.87,3.87,3.87,3.87,0,0,1,3.87-3.87" transform="translate(-1721.39 -29.62)"/><path class="cls-24" d="M2520.54,427a1.91,1.91,0,0,0,2-1.84s0-7.9-.3-8.57c-0.2-.51-4.09-6.85-4.09-6.85h-3.48v2s3.66,5.51,3.85,6,0.12,7.38.12,7.38a2,2,0,0,0,1.87,1.85" transform="translate(-1721.39 -29.62)"/><path class="cls-24" d="M2503.51,433.95a1.9,1.9,0,0,0,1.81,1.8,2,2,0,0,0,2.07-2V420.59l4.2-8.79v-2h-3.35s-4.59,9.14-4.71,9.75-0.05,9.63,0,14c0,0.06,0,.13,0,0.2a1.85,1.85,0,0,0,0,.23" transform="translate(-1721.39 -29.62)"/><path class="cls-24" d="M2526.63,407.76c0-.07-6.22-11.5-7.22-13.58-0.48-1-1.25-1-3.39-1h-5.79c-2.14,0-2.91,0-3.39,1-1,2.08-7.19,13.51-7.22,13.58a1.44,1.44,0,0,0,.64,1.8,1.87,1.87,0,0,0,.86.21,1.63,1.63,0,0,0,1.32-.79l5.92-11.15v9.31h9.53v-9.31l5.92,11.15a1.63,1.63,0,0,0,1.32.79,1.87,1.87,0,0,0,.86-0.21,1.45,1.45,0,0,0,.64-1.8" transform="translate(-1721.39 -29.62)"/><path class="cls-24" d="M2513.26,416.61h-0.18a0.91,0.91,0,0,0-1,.86v27a0.91,0.91,0,0,0,1,.86h0.18a0.91,0.91,0,0,0,1-.86v-27a0.91,0.91,0,0,0-1-.86" transform="translate(-1721.39 -29.62)"/><path class="cls-24" d="M2513.16,407.6h-9.23s-0.5,1-.73,1.35l9.16,0v5.28a3.66,3.66,0,0,0-2.85,3.59v13.89h1.66V417.48a1.81,1.81,0,0,1,1.43-1.73h1.08a1.81,1.81,0,0,1,1.43,1.73v14.27h1.59V417.85a3.66,3.66,0,0,0-2.75-3.57V409l9.16,0c-0.22-.37-0.73-1.35-0.73-1.35h-9.23Z" transform="translate(-1721.39 -29.62)"/><path class="cls-24" d="M2522.64,427.7h-4.07a0.42,0.42,0,0,0-.3.48V429a0.42,0.42,0,0,0,.3.48h4.07a0.42,0.42,0,0,0,.3-0.48v-0.82a0.42,0.42,0,0,0-.3-0.48" transform="translate(-1721.39 -29.62)"/><path class="cls-24" d="M2504.23,353.06a3,3,0,1,0,3,3,3,3,0,0,0-3-3" transform="translate(-1721.39 -29.62)"/><path class="cls-24" d="M2509.73,370.35a0.69,0.69,0,0,1-.89-0.36l-1.42-5.91-0.2,6.28h0l0.56,10.39a1.14,1.14,0,0,1-1.05,1.21h-0.09a1.12,1.12,0,0,1-1.13-1.05l-1.29-9.8-1.28,9.8a1.14,1.14,0,0,1-1.14,1.05h-0.08a1.14,1.14,0,0,1-1.05-1.21l0.55-10.39-0.19-6.28s-3.77,3.8-4,3.9a0.81,0.81,0,0,1-1.06-.43l-3.06-6.67,2.32,11.27H2493l-0.69,9.22a0.81,0.81,0,0,1-1.62,0l-0.69-9.22h-0.82l-0.69,9.22a0.81,0.81,0,0,1-1.62,0l-0.69-9.22h-2.24l2.32-11.27-3.06,6.67a0.81,0.81,0,1,1-1.48-.64s1.82-6.62,2.66-8.34,1.68-2.77,4.88-2.77h0.66c3.2,0,4,1,4.88,2.77a67.93,67.93,0,0,1,2.31,7.12,30.37,30.37,0,0,0,2.34-3.56c0.71-1.46,1.81-2.33,4.51-2.33h0.55c2.7,0,3.79.88,4.51,2.33s1.08,7.32,1.08,7.32a0.68,0.68,0,0,1-.36.89" transform="translate(-1721.39 -29.62)"/><path class="cls-24" d="M2494.74,353.51a1.61,1.61,0,0,1-1.65,1.58,1.64,1.64,0,0,1-1.45-.86,3.4,3.4,0,0,1-4.53,0,1.64,1.64,0,0,1-1.45.86,1.58,1.58,0,1,1,0-3.15,1.52,1.52,0,0,1,.2,0,3.31,3.31,0,0,1-.1-0.49,3.61,3.61,0,0,1,7.22,0,3.31,3.31,0,0,1-.1.49,1.37,1.37,0,0,1,.2,0,1.62,1.62,0,0,1,1.65,1.58" transform="translate(-1721.39 -29.62)"/><path class="cls-25" d="M2095.39,290.87h4.43v4a1.17,1.17,0,0,0,2.34,0v-4a0.5,0.5,0,0,0,.5-0.5v-2.95l-3.82-1.81H2091l-1-.57a0.68,0.68,0,0,0-.67,1.18l1.6,0.92v7.68a1.17,1.17,0,0,0,2.34,0v-3l2.12,3.58a1.17,1.17,0,1,0,2-1.2Z" transform="translate(-1721.39 -29.62)"/><path class="cls-25" d="M2103.85,283.24a0.55,0.55,0,1,1,.55-0.55,0.55,0.55,0,0,1-.55.55m1.38-1.93-0.58-.9-5.38,1.06,1.91,2.81,0.91-.57v-2h0.75v2.43l-1.9,1.18-0.84-1.22-0.66.8,3.48,1.71,4.46-2.72V281.3h-2.16Z" transform="translate(-1721.39 -29.62)"/><path class="cls-25" d="M2082,269.34a2.6,2.6,0,1,0-2.6-2.59,2.59,2.59,0,0,0,2.6,2.59" transform="translate(-1721.39 -29.62)"/><path class="cls-25" d="M2078.57,273.46v21a1.45,1.45,0,1,0,2.91,0V282.29h1V294.5a1.46,1.46,0,0,0,2.91,0v-21h1l1.47,7.76c0.26,1.49,2,1.56,2,0v-0.66l9,5.07,0.59-.69-9.72-5.39-1.36-6.26c-0.3-1.75-1.34-3.41-3.36-3.41h-4.79a3.3,3.3,0,0,0-2.77,1.51" transform="translate(-1721.39 -29.62)"/><path class="cls-25" d="M2086.52,271.39a3.3,3.3,0,0,0-2.77-1.51H2079c-2,0-3.17,1.6-3.36,3.41l-1.47,7.92c0,1.56,1.78,1.54,2,0l1.47-7.76h1v21a1.46,1.46,0,0,0,2.91,0V282.29h1V294.5a1.45,1.45,0,1,0,2.91,0v-21" transform="translate(-1721.39 -29.62)"/><polygon class="cls-25" points="356.99 243.84 355.13 255.86 366.17 255.86 364.07 243.39 356.99 243.84"/></g><g id="PARKING_SYSTEM" data-name="PARKING SYSTEM"><path class="cls-26" d="M2430.71,392.83a6.79,6.79,0,0,0-6.65,6.9v0l2.14,10.77a1.71,1.71,0,0,0,1.63,1.37h1.39v3.31h0V445.8h3.06V415.24h0v-3.31h1.38a1.71,1.71,0,0,0,1.62-1.37l2.15-10.77a0.41,0.41,0,0,0,0,0A6.79,6.79,0,0,0,2430.71,392.83Zm-1,22.4v-3.31h2v3.31h-2Zm5-4.79a1.26,1.26,0,0,1-1.13,1h-5.75a1.23,1.23,0,0,1-1.12-1l-2.13-10.71h0a6.14,6.14,0,1,1,12.27,0Z" transform="translate(-1721.39 -29.62)"/><path class="cls-26" d="M2430.71,395.26a4.4,4.4,0,0,0-4.31,4.47,0.26,0.26,0,0,0,.25.26h8.11a0.26,0.26,0,0,0,.25-0.26A4.39,4.39,0,0,0,2430.71,395.26Zm0.25,4.22v-1.61a0.25,0.25,0,1,0-.51,0v1.61h-3.52a4.05,4.05,0,0,1,.91-2.32l0.6,0.6a0.25,0.25,0,0,0,.36,0,0.27,0.27,0,0,0,0-.37l-0.6-.61a3.68,3.68,0,0,1,2.26-1v0.9a0.25,0.25,0,0,0,.25.26,0.26,0.26,0,0,0,.25-0.26v-0.9a3.63,3.63,0,0,1,2.26,1l-0.6.61a0.26,0.26,0,1,0,.35.37l0.61-.6a4,4,0,0,1,.9,2.32H2431Z" transform="translate(-1721.39 -29.62)"/><path class="cls-26" d="M2431,402.71h-0.5a0.81,0.81,0,0,0-.82.81v3.79a0.83,0.83,0,0,0,.82.83h0.5a0.83,0.83,0,0,0,.82-0.83v-3.79A0.81,0.81,0,0,0,2431,402.71Zm0.31,4.61a0.31,0.31,0,0,1-.31.31h-0.5a0.31,0.31,0,0,1-.31-0.31v-3.79a0.3,0.3,0,0,1,.31-0.3h0.5a0.3,0.3,0,0,1,.31.3v3.79Z" transform="translate(-1721.39 -29.62)"/></g><g id="CHANNELIZATION"><polygon class="cls-2" points="466.92 363.21 480.35 363.21 483.83 419.46 463.47 419.46 466.92 363.21"/><polygon class="cls-2" points="470.14 309.39 476.58 309.39 479.54 349.26 466.29 349.26 470.14 309.39"/><polygon class="cls-2" points="472.33 278.01 474.98 278.01 476.36 300.16 470.49 300.16 472.33 278.01"/><polygon class="cls-2" points="472.91 258.17 474.06 258.17 474.52 269.39 472.33 269.39 472.91 258.17"/></g><g id="ITS"><g id="Traffic_Light" data-name="Traffic Light"><polyline class="cls-27" points="236.94 416.81 236.94 261.97 319.26 261.97 319.26 275.31"/><rect class="cls-2" x="308.8" y="275.19" width="18.36" height="38.04" rx="2.36" ry="2.36"/><path class="cls-15" d="M2044.19,312.73a4.81,4.81,0,1,1-4.81-4.81,4.81,4.81,0,0,1,4.81,4.81" transform="translate(-1721.39 -29.62)"/><path class="cls-15" d="M2044.19,324.1a4.81,4.81,0,1,1-4.81-4.81,4.81,4.81,0,0,1,4.81,4.81" transform="translate(-1721.39 -29.62)"/><path class="cls-15" d="M2044.19,335.47a4.81,4.81,0,1,1-4.81-4.81,4.81,4.81,0,0,1,4.81,4.81" transform="translate(-1721.39 -29.62)"/><polygon class="cls-2" points="306.83 279.99 300.93 279.99 300.93 281.31 306.83 287.65 306.83 279.99"/><polygon class="cls-2" points="306.83 290.05 300.93 290.05 300.93 291.36 306.83 297.7 306.83 290.05"/><polygon class="cls-2" points="306.83 300.11 300.93 300.11 300.93 301.42 306.83 307.76 306.83 300.11"/><polygon class="cls-2" points="329.19 279.99 335.09 279.99 335.09 281.31 329.19 287.65 329.19 279.99"/><polygon class="cls-2" points="329.19 290.05 335.09 290.05 335.09 291.36 329.19 297.7 329.19 290.05"/><polygon class="cls-2" points="329.19 300.11 335.09 300.11 335.09 301.42 329.19 307.76 329.19 300.11"/></g><path class="cls-28" d="M2043.16,295.31a5.4,5.4,0,1,0,5.4,5.4A5.4,5.4,0,0,0,2043.16,295.31Zm1.58,6.14a1.58,1.58,0,1,1,1.58-1.58A1.58,1.58,0,0,1,2044.75,301.45Z" transform="translate(-1721.39 -29.62)"/></g><g id="REAL_PROPERTY" data-name="REAL PROPERTY"><path class="cls-29" d="M1805.43,137.69h-83.54V234.2l266.8-1.35V137.69" transform="translate(-1721.39 -29.62)"/><rect class="cls-29" x="126.7" y="103.97" width="183.35" height="18.14"/><polygon class="cls-29" points="123.4 0 104.37 30.66 142.44 30.66 123.4 0"/><path d="M1845,67c-5.87,0-10.65,4.26-10.65,9.49s4.78,9.49,10.65,9.49,10.65-4.26,10.65-9.49S1850.9,67,1845,67ZM1845,85c-5.33,0-9.66-3.84-9.66-8.57s4.33-8.57,9.66-8.57,9.66,3.84,9.66,8.57S1850.35,85,1845,85Z" transform="translate(-1721.39 -29.62)"/><path d="M1850.92,67.41a0.45,0.45,0,0,1-.21-0.11,0.16,0.16,0,0,1,0-.16l0.91-2.4a0.19,0.19,0,0,1,.12-0.14,0.51,0.51,0,0,1,.24,0l0-.12-1-.35,0,0.12a0.52,0.52,0,0,1,.21.11,0.18,0.18,0,0,1,0,.18l-0.91,2.4a0.17,0.17,0,0,1-.11.12,0.46,0.46,0,0,1-.24,0l0,0.12,1,0.35Z" transform="translate(-1721.39 -29.62)"/><path d="M1854.87,71.49l0.11-.07a0.42,0.42,0,0,1-.1-0.22,0.17,0.17,0,0,1,.1-0.14l2.4-1.45a0.22,0.22,0,0,1,.2,0,0.51,0.51,0,0,1,.17.17l0.11-.07-0.64-.91-0.63-.91-0.11.07a0.47,0.47,0,0,1,.1.21,0.2,0.2,0,0,1-.12.15l-2.4,1.45a0.19,0.19,0,0,1-.17,0,0.45,0.45,0,0,1-.18-0.17l-0.11.07,0.64,0.91Zm-0.52-1.33,2.4-1.45a0.22,0.22,0,0,1,.2,0,0.5,0.5,0,0,1,.17.17,0.45,0.45,0,0,1,.1.22,0.2,0.2,0,0,1-.12.15l-2.4,1.45a0.2,0.2,0,0,1-.17,0,0.45,0.45,0,0,1-.18-0.17,0.41,0.41,0,0,1-.1-0.22A0.18,0.18,0,0,1,1854.35,70.16Z" transform="translate(-1721.39 -29.62)"/><path d="M1859.48,74.77a0.39,0.39,0,0,1,0,.2,0.19,0.19,0,0,1-.16.06h-2.49a0.17,0.17,0,0,1-.14-0.06,0.36,0.36,0,0,1,0-.2h-0.12v2.82h0.12a0.36,0.36,0,0,1,0-.2,0.17,0.17,0,0,1,.14-0.06h2.49a0.19,0.19,0,0,1,.16.06,0.39,0.39,0,0,1,0,.2h0.12V74.77h-0.12Zm0,2.08a0.19,0.19,0,0,1-.16.06h-2.49a0.17,0.17,0,0,1-.14-0.06,0.51,0.51,0,0,1,0-.4,0.17,0.17,0,0,1,.14-0.06h2.49a0.19,0.19,0,0,1,.16.06A0.57,0.57,0,0,1,1859.44,76.85Zm0-.94a0.19,0.19,0,0,1-.16.06h-2.49a0.17,0.17,0,0,1-.14-0.06,0.51,0.51,0,0,1,0-.4,0.17,0.17,0,0,1,.14-0.06h2.49a0.19,0.19,0,0,1,.16.06A0.57,0.57,0,0,1,1859.44,75.91Z" transform="translate(-1721.39 -29.62)"/><path d="M1852.33,87.41a0.28,0.28,0,0,1-.16-0.1l-2-2-0.12.05,0.23,2.77a0.38,0.38,0,0,1,0,.18,0.3,0.3,0,0,1-.14.1l0.05,0.1,0.71-.31-0.05-.1a0.66,0.66,0,0,1-.23.06,0.09,0.09,0,0,1-.08-0.05,0.2,0.2,0,0,1,0-.08l-0.19-2,1.5,1.47,0,0.06a0.08,0.08,0,0,1,0,.1,0.59,0.59,0,0,1-.2.12l0.05,0.1,0.92-.4-0.05-.1A0.35,0.35,0,0,1,1852.33,87.41Z" transform="translate(-1721.39 -29.62)"/><path d="M1833.34,78.06a0.36,0.36,0,0,1,0,.2h0.12V77.32h-0.12a0.36,0.36,0,0,1,0,.2,0.17,0.17,0,0,1-.14.06h-2.49a0.19,0.19,0,0,1-.16-0.06,0.39,0.39,0,0,1,0-.2h-0.12v0.94h0.12a0.39,0.39,0,0,1,0-.2,0.19,0.19,0,0,1,.16-0.06h2.49A0.17,0.17,0,0,1,1833.34,78.06Z" transform="translate(-1721.39 -29.62)"/><path d="M1830.55,77.1a0.59,0.59,0,0,1,.16-0.12l1.34-.8,1.15,0.8,0.14,0.12a0.18,0.18,0,0,1,0,.14h0.12V76.51h-0.12a0.47,0.47,0,0,1,0,.26,0.07,0.07,0,0,1-.06,0l-0.08,0-1-.7,1-.64,0.07,0a0.07,0.07,0,0,1,.06,0,0.47,0.47,0,0,1,0,.24h0.12V74.74h-0.12a0.19,0.19,0,0,1-.05.14l-0.13.12-1.31.83-1.18-.83a0.82,0.82,0,0,1-.16-0.12,0.2,0.2,0,0,1,0-.13h-0.12v0.73h0.12a0.5,0.5,0,0,1,.05-0.25,0.08,0.08,0,0,1,.07,0,0.14,0.14,0,0,1,.08,0l1,0.73-1,.62-0.09,0a0.08,0.08,0,0,1-.07,0,0.48,0.48,0,0,1,0-.24h-0.12v0.94h0.12A0.21,0.21,0,0,1,1830.55,77.1Z" transform="translate(-1721.39 -29.62)"/><path d="M1858.29,81.36a0.19,0.19,0,0,1-.17,0L1856.06,80a0.15,0.15,0,0,1-.09-0.12,0.36,0.36,0,0,1,.09-0.19l-0.1-.06-0.56.78-0.56.78-0.51.71-0.56.78,0.1,0.06a0.39,0.39,0,0,1,.15-0.14,0.17,0.17,0,0,1,.15,0l2.06,1.29a0.17,0.17,0,0,1,.1.13,0.4,0.4,0,0,1-.09.19l0.1,0.06,0.56-.78,0.56-.78,0.51-.71,0.56-.78-0.1-.06A0.42,0.42,0,0,1,1858.29,81.36Zm-1.48,2.12a0.42,0.42,0,0,1-.15.15,0.19,0.19,0,0,1-.17,0l-2.06-1.29a0.15,0.15,0,0,1-.09-0.12,0.37,0.37,0,0,1,.09-0.19,0.39,0.39,0,0,1,.15-0.14,0.17,0.17,0,0,1,.15,0l2.07,1.29a0.17,0.17,0,0,1,.1.13A0.39,0.39,0,0,1,1856.81,83.48Zm0.53-.74a0.42,0.42,0,0,1-.11.11,0.19,0.19,0,0,1-.17,0L1855,81.52a0.15,0.15,0,0,1-.09-0.12,0.38,0.38,0,0,1,.07-0.15,0.41,0.41,0,0,1,.12-0.11,0.17,0.17,0,0,1,.15,0l2.06,1.29a0.17,0.17,0,0,1,.1.13A0.39,0.39,0,0,1,1857.34,82.74Zm0.55-.74a0.42,0.42,0,0,1-.15.15,0.19,0.19,0,0,1-.17,0l-2.06-1.29a0.15,0.15,0,0,1-.09-0.12,0.37,0.37,0,0,1,.09-0.19,0.39,0.39,0,0,1,.15-0.14,0.17,0.17,0,0,1,.15,0l2.07,1.29a0.17,0.17,0,0,1,.1.13A0.39,0.39,0,0,1,1857.88,82Z" transform="translate(-1721.39 -29.62)"/><path d="M1843.54,86.72a0.44,0.44,0,0,1,.22,0,0.14,0.14,0,0,1,.06.13v2.32a0.16,0.16,0,0,1-.06.15,0.47,0.47,0,0,1-.22,0V89.5h1V89.39a0.47,0.47,0,0,1-.22,0,0.16,0.16,0,0,1-.06-0.15V86.89a0.15,0.15,0,0,1,.06-0.13,0.43,0.43,0,0,1,.22,0V86.61h-1v0.11Z" transform="translate(-1721.39 -29.62)"/><path d="M1847.05,89.2l-1-2.6h-0.14l-0.95,2.6a0.25,0.25,0,0,1-.1.15,0.37,0.37,0,0,1-.18,0V89.5h1V89.39a0.6,0.6,0,0,1-.23,0,0.09,0.09,0,0,1-.05-0.08,0.23,0.23,0,0,1,0-.07l0.69-1.92,0.75,1.92a0.19,0.19,0,0,1,0,.07,0.08,0.08,0,0,1-.05.08,0.64,0.64,0,0,1-.24,0V89.5h0.78V89.39a0.31,0.31,0,0,1-.17,0A0.38,0.38,0,0,1,1847.05,89.2Z" transform="translate(-1721.39 -29.62)"/><path d="M1838.62,87.52l1.12-2.07a0.16,0.16,0,0,1,.12-0.09,0.42,0.42,0,0,1,.21.06l0.05-.1-0.9-.42-0.9-.42-0.05.1a0.4,0.4,0,0,1,.17.12,0.14,0.14,0,0,1,0,.14l-1.12,2.07a0.18,0.18,0,0,1-.13.11A0.47,0.47,0,0,1,1837,87l-0.05.1,0.9,0.42,0.9,0.42,0.05-.1a0.43,0.43,0,0,1-.18-0.12A0.16,0.16,0,0,1,1838.62,87.52Zm-0.54-.08a0.49,0.49,0,0,1-.21-0.06,0.45,0.45,0,0,1-.18-0.12,0.16,0.16,0,0,1,0-.16l1.12-2.07a0.16,0.16,0,0,1,.12-0.09,0.42,0.42,0,0,1,.21.06,0.39,0.39,0,0,1,.17.12,0.14,0.14,0,0,1,0,.14l-1.12,2.07A0.18,0.18,0,0,1,1838.08,87.44Z" transform="translate(-1721.39 -29.62)"/><path d="M1841.29,85.86l-2.1,1.93a0.27,0.27,0,0,1-.16.1,0.37,0.37,0,0,1-.18,0l-0.05.1,0.9,0.42,0.05-.1a0.57,0.57,0,0,1-.19-0.13,0.08,0.08,0,0,1,0-.1l0-.06,1.55-1.43-0.26,2a0.22,0.22,0,0,1,0,.07,0.09,0.09,0,0,1-.08,0,0.64,0.64,0,0,1-.23-0.07l-0.05.1,0.7,0.33,0.05-.1a0.3,0.3,0,0,1-.14-0.1,0.36,0.36,0,0,1,0-.18l0.32-2.76Z" transform="translate(-1721.39 -29.62)"/><path d="M1833.1,83.52a0.17,0.17,0,0,1,.1-0.13l2-1.32a0.17,0.17,0,0,1,.15,0,0.39,0.39,0,0,1,.16.14l0.1-.06-0.58-.77-0.58-.77-0.58-.77-0.1.06a0.36,0.36,0,0,1,.09.19,0.15,0.15,0,0,1-.08.12l-2,1.32a0.19,0.19,0,0,1-.17,0,0.42,0.42,0,0,1-.15-0.15l-0.1.06,0.58,0.77,0.58,0.77,0.58,0.77,0.1-.06A0.39,0.39,0,0,1,1833.1,83.52Zm-0.74-1.26a0.19,0.19,0,0,1-.17,0,0.43,0.43,0,0,1-.15-0.15,0.39,0.39,0,0,1-.09-0.18,0.17,0.17,0,0,1,.1-0.13l2-1.32a0.17,0.17,0,0,1,.15,0,0.4,0.4,0,0,1,.16.14,0.37,0.37,0,0,1,.09.19,0.15,0.15,0,0,1-.08.12Zm0.58,0.77a0.19,0.19,0,0,1-.17,0,0.41,0.41,0,0,1-.15-0.15,0.38,0.38,0,0,1-.09-0.18,0.17,0.17,0,0,1,.1-0.13l2-1.32a0.17,0.17,0,0,1,.15,0,0.38,0.38,0,0,1,.16.14,0.35,0.35,0,0,1,.09.19,0.15,0.15,0,0,1-.08.12Z" transform="translate(-1721.39 -29.62)"/><path d="M1833.57,83.88a0.3,0.3,0,0,1-.19,0,0.34,0.34,0,0,1-.13-0.12l-0.1.06,0.58,0.77,0.1-.06a0.48,0.48,0,0,1-.1-0.2,0.08,0.08,0,0,1,0-.09l0.07,0,2.09-.57-1.27,1.67-0.06.06a0.09,0.09,0,0,1-.1,0,0.58,0.58,0,0,1-.17-0.16l-0.1.06,0.45,0.6,0.1-.06a0.26,0.26,0,0,1-.07-0.15,0.35,0.35,0,0,1,.08-0.17l1.7-2.28-0.08-.11Z" transform="translate(-1721.39 -29.62)"/><path d="M1832,70.18a0.67,0.67,0,0,1,.21,0l1.59,0.15,0.36,1.29c0,0.08,0,.13,0,0.17a0.18,0.18,0,0,1-.06.13l0.09,0.07,0.49-.57-0.09-.07a0.53,0.53,0,0,1-.21.17,0.07,0.07,0,0,1-.06,0,0.13,0.13,0,0,1,0-.07l-0.3-1.12,1.2,0.07,0.08,0a0.06,0.06,0,0,1,0,.07,0.49,0.49,0,0,1-.13.22l0.09,0.07,0.63-.74-0.09-.07a0.21,0.21,0,0,1-.13.08h-0.18l-1.58-.11-0.37-1.33a0.75,0.75,0,0,1,0-.19,0.21,0.21,0,0,1,.06-0.13l-0.09-.07-0.49.57,0.09,0.07a0.54,0.54,0,0,1,.21-0.16,0.08,0.08,0,0,1,.08,0,0.13,0.13,0,0,1,0,.08l0.31,1.15-1.2-.1-0.09,0a0.07,0.07,0,0,1,0-.07,0.49,0.49,0,0,1,.13-0.22l-0.09-.07-0.63.74,0.09,0.07A0.23,0.23,0,0,1,1832,70.18Z" transform="translate(-1721.39 -29.62)"/><path d="M1838.35,66.09l-0.3,1.31-0.06.17a0.2,0.2,0,0,1-.11.1l0.05,0.1,0.71-.31-0.05-.1a0.56,0.56,0,0,1-.27.07,0.07,0.07,0,0,1-.05,0,0.13,0.13,0,0,1,0-.08l0.27-1.13,1,0.56a0.13,0.13,0,0,1,.06.05,0.06,0.06,0,0,1,0,.07,0.54,0.54,0,0,1-.22.14l0.05,0.1,0.92-.4-0.05-.1a0.23,0.23,0,0,1-.16,0l-0.17-.06-1.36-.76,0.31-1.34a0.72,0.72,0,0,1,.05-0.19,0.22,0.22,0,0,1,.11-0.09l-0.05-.1-0.71.31,0.05,0.1a0.6,0.6,0,0,1,.26-0.06,0.08,0.08,0,0,1,.07,0,0.12,0.12,0,0,1,0,.09l-0.28,1.16-1-.59a0.17,0.17,0,0,1-.06-0.06,0.06,0.06,0,0,1,0-.07,0.54,0.54,0,0,1,.22-0.14l-0.05-.1-0.92.4,0.05,0.1a0.26,0.26,0,0,1,.15,0,0.67,0.67,0,0,1,.18.09Z" transform="translate(-1721.39 -29.62)"/><path d="M1839.39,64.09a0.17,0.17,0,0,1,.12.12l1.05,2.1a0.15,0.15,0,0,1,0,.14,0.41,0.41,0,0,1-.18.12l0.05,0.1,0.92-.4-0.05-.1a0.43,0.43,0,0,1-.21,0,0.15,0.15,0,0,1-.11-0.1l-1.05-2.1a0.16,0.16,0,0,1,0-.16,0.43,0.43,0,0,1,.18-0.12l-0.05-.1-0.92.4,0.05,0.1A0.48,0.48,0,0,1,1839.39,64.09Z" transform="translate(-1721.39 -29.62)"/><path d="M1843.12,65.87a0.14,0.14,0,0,1,0-.07l0.75-.91,0.69,0.91a0.12,0.12,0,0,1,0,.07,0.07,0.07,0,0,1,0,.06,0.58,0.58,0,0,1-.26,0v0.11h2.84V66a0.44,0.44,0,0,1-.22,0,0.14,0.14,0,0,1-.06-0.13V63.48a0.16,0.16,0,0,1,.06-0.15,0.47,0.47,0,0,1,.22,0V63.18h-2.61v0.11a0.6,0.6,0,0,1,.27,0,0.07,0.07,0,0,1,0,.06,0.14,0.14,0,0,1,0,.08l-0.78.94-0.66-.94a0.15,0.15,0,0,1,0-.08,0.07,0.07,0,0,1,0-.06,0.58,0.58,0,0,1,.26,0V63.18h-1v0.11a0.26,0.26,0,0,1,.15,0,0.57,0.57,0,0,1,.13.15l0.86,1.25-0.86,1.07-0.13.13a0.21,0.21,0,0,1-.15,0v0.11h0.78V66a0.57,0.57,0,0,1-.28,0A0.06,0.06,0,0,1,1843.12,65.87Zm2.75-2.39a0.16,0.16,0,0,1,.06-0.15,0.48,0.48,0,0,1,.22,0,0.47,0.47,0,0,1,.22,0,0.16,0.16,0,0,1,.06.15v2.32a0.14,0.14,0,0,1-.06.13,0.43,0.43,0,0,1-.22,0,0.44,0.44,0,0,1-.22,0,0.15,0.15,0,0,1-.06-0.13V63.48Zm-0.82,0a0.87,0.87,0,0,1,.13-0.15l0.07,0,0.1,0a0.16,0.16,0,0,1,.06.15v2.32a0.15,0.15,0,0,1-.06.13l-0.1,0a0.22,0.22,0,0,1-.08,0l-0.12-.12-0.89-1.22Z" transform="translate(-1721.39 -29.62)"/><path d="M1845.46,69.86a2.9,2.9,0,0,0,.36-1.82,9.78,9.78,0,0,0-.47-2.17,9.64,9.64,0,0,0-.47,2.17,3.12,3.12,0,0,0,.31,1.81,0.25,0.25,0,0,0-.18.21v5.87h-4.62a0.15,0.15,0,0,0-.12.06,2.51,2.51,0,0,0-1.41-.25,8.56,8.56,0,0,0-1.64.3,8.52,8.52,0,0,0,1.64.3,2.69,2.69,0,0,0,1.4-.22,0.15,0.15,0,0,0,.12.06H1845a0.31,0.31,0,0,0,.62,0V70.06A0.25,0.25,0,0,0,1845.46,69.86Z" transform="translate(-1721.39 -29.62)"/><path d="M1845.24,75.24a0.8,0.8,0,1,0,.85.79A0.83,0.83,0,0,0,1845.24,75.24Zm0,1.32a0.52,0.52,0,1,1,.56-0.52A0.55,0.55,0,0,1,1845.24,76.55Z" transform="translate(-1721.39 -29.62)"/><path class="cls-30" d="M1845,62.35c-8.54,0-15.49,6.17-15.49,13.75s6.95,13.75,15.49,13.75,15.49-6.17,15.49-13.75S1853.53,62.35,1845,62.35Z" transform="translate(-1721.39 -29.62)"/><path class="cls-29" d="M1863.77,61.18l0.07-2.43L1825,59v93h38.78V110.07h-0.07V61.18ZM1845,62.35c8.54,0,15.49,6.17,15.49,13.75s-6.95,13.75-15.49,13.75-15.49-6.17-15.49-13.75S1836.44,62.35,1845,62.35Z" transform="translate(-1721.39 -29.62)"/><text class="cls-31" transform="translate(133.12 117.95)">KING STREET STATION</text></g><g id="BRIDGES_STRUCTURE" data-name="BRIDGES &amp; STRUCTURE"><line class="cls-32" x1="94.08" y1="165.56" x2="94.08" y2="314.54"/><line class="cls-33" x1="131.94" y1="175.15" x2="131.94" y2="304.96"/><line class="cls-32" x1="750.16" y1="174.8" x2="750.16" y2="317.51"/><line class="cls-33" x1="712.8" y1="174.81" x2="714.38" y2="286.58"/><rect class="cls-34" x="1" y="141.11" width="842.06" height="34.48"/><line class="cls-35" x1="167.77" y1="165.79" x2="167.77" y2="283.96"/><line class="cls-35" x1="670.91" y1="168.99" x2="672.48" y2="280.76"/><rect class="cls-36" x="1" y="129.77" width="842.06" height="11.34"/><rect class="cls-34" x="1" y="124.32" width="842.06" height="6.45"/></g><g id="URBAN_FOREST" data-name="URBAN FOREST"><path class="cls-37" d="M2542.59,322.26c2-3.68,4-5.17,1.35-9.55,0.3-2,2.06-4.32-.18-4.7-1.92-.33-3.22.47-4.22,2.61-0.31.14-.59,0.29-0.87,0.45-0.1-.92-0.75-1.68-3.07-0.48,1.91-5.14-.38-4.58,1.18-7.21a4.38,4.38,0,0,0-2-6.28c2.78-4.25-3.6-5.69-6.48-2,0-2.09-.23-5.32-1.42-4.67-1.66.91,0.65-3-1-5.67-2.9-4.69-6.19-3.95-7.15-2.35-0.94-.36-1-2.11-3.61-1.71-1.43-3.1-4.75.21-3.77,3.61-2.64-.16-3.24,2.13-1.26,3.37-1.78,1.1-3.76,3.79-3.24,5.87a7.15,7.15,0,0,0-.59,4.54c-1.62-1.38-4.69.45-4.09,4.3-3.24-3.11-5.27,2.89-4.73,5.94-1.09.12-2,1.07-2.53,2.45-1.81-.94-5.94,1.07-3.87,3.3-6.94,2.69-1.24,12.18,2.93,12.35-1.25,3.17.77,5.78,4,6.74,0.33,3.26,7.33,3.05,8.4-.78a2.29,2.29,0,0,0,.41.18c1.51,2.61,3.42,2.5,5.09,1.48h0c1.39,1.42,3.61,5.64,5.22,8.48-0.26,5.32-.43,10.68-0.45,12.27h5.21c0-2.72-1.13-11.28-1.15-12.69,0-1,0-2.72.1-5a48.45,48.45,0,0,1,3.25-4.15,37.9,37.9,0,0,0,10-2.46,11.67,11.67,0,0,0,4.13-.65c-3.15,4.66,4.28,3.85,6.52.16C2547.06,326,2547,319.6,2542.59,322.26Zm-24.75,9.4c-0.22,1.54-.42,4.16-0.6,7.1a57.72,57.72,0,0,0-4.12-5.72,11.26,11.26,0,0,0,2.37-3.13c0.18-.4,1.1-0.09,2.56.12C2518,330.6,2517.91,331.14,2517.84,331.66Zm3,2.3c0-1.19,0-2.47,0-3.81a12,12,0,0,0,4.65-1.32,3.74,3.74,0,0,1,2.14.22A14.2,14.2,0,0,0,2520.81,334Zm4.26-2.13a5.27,5.27,0,0,1,2.43-1.57,4.9,4.9,0,0,0,1.69-.76,25.21,25.21,0,0,0,3.86.87A27,27,0,0,1,2525.07,331.83Z" transform="translate(-1721.39 -29.62)"/><path class="cls-15" d="M2558.35,325.25c2-3.35,3.95-4.7,1.34-8.68,0.3-1.81,2.06-3.93-.18-4.28-1.91-.3-3.21.43-4.2,2.37-0.3.13-.59,0.27-0.86,0.41-0.1-.83-0.75-1.53-3.05-0.44,1.9-4.68-.38-4.17,1.17-6.56a3.84,3.84,0,0,0-2-5.71c2.77-3.86-3.58-5.17-6.45-1.82,0-1.9-.23-4.84-1.42-4.24-1.66.83,0.64-2.69-1-5.15-2.89-4.26-6.16-3.59-7.12-2.14-0.94-.32-1-1.92-3.59-1.55-1.42-2.82-4.73.19-3.75,3.28-2.63-.14-3.23,1.94-1.26,3.06-1.77,1-3.74,3.45-3.23,5.34a6,6,0,0,0-.59,4.13c-1.61-1.25-4.67.41-4.07,3.91-3.22-2.83-5.24,2.63-4.71,5.4a3.35,3.35,0,0,0-2.52,2.23c-1.81-.85-5.91,1-3.86,3-6.91,2.44-1.23,11.07,2.92,11.23-1.24,2.88.77,5.25,4,6.13,0.33,3,7.3,2.77,8.36-.71a2.4,2.4,0,0,0,.41.16c1.51,2.37,3.41,2.27,5.06,1.35h0c1.38,1.29,3.59,5.13,5.2,7.71-0.26,4.84-.42,9.71-0.45,11.16h5.19c0-2.47-1.12-10.25-1.14-11.54,0-.87,0-2.47.1-4.58a44.88,44.88,0,0,1,3.24-3.77,40.74,40.74,0,0,0,10-2.24,12.63,12.63,0,0,0,4.11-.6c-3.13,4.24,4.26,3.5,6.49.14C2562.8,328.68,2562.77,322.83,2558.35,325.25Zm-24.64,8.55c-0.22,1.4-.42,3.78-0.59,6.46a52.9,52.9,0,0,0-4.1-5.2,10.36,10.36,0,0,0,2.36-2.84c0.18-.37,1.09-0.08,2.55.1C2533.85,332.83,2533.79,333.33,2533.71,333.8Zm3,2.09c0-1.08,0-2.24,0-3.47a12.85,12.85,0,0,0,4.63-1.2,4.05,4.05,0,0,1,2.13.2A14.14,14.14,0,0,0,2536.67,335.89Zm4.24-1.94a5.34,5.34,0,0,1,2.42-1.43,5.12,5.12,0,0,0,1.68-.69,27.15,27.15,0,0,0,3.85.79A29.18,29.18,0,0,1,2540.91,334Z" transform="translate(-1721.39 -29.62)"/><path class="cls-37" d="M2557.36,325.07c2-3.22,3.79-4.52,1.29-8.34,0.28-1.74,2-3.77-.17-4.11-1.83-.29-3.08.41-4,2.28-0.29.13-.57,0.26-0.83,0.39-0.1-.8-0.72-1.47-2.93-0.42,1.82-4.49-.36-4,1.13-6.3a3.69,3.69,0,0,0-1.95-5.48c2.66-3.71-3.45-5-6.2-1.75,0-1.82-.22-4.65-1.36-4.08-1.59.79,0.62-2.59-1-5-2.77-4.1-5.92-3.45-6.84-2.05-0.9-.31-0.92-1.84-3.45-1.49-1.37-2.71-4.54.19-3.61,3.15-2.53-.14-3.1,1.86-1.21,2.94-1.7,1-3.6,3.31-3.1,5.13a5.77,5.77,0,0,0-.57,4c-1.55-1.2-4.49.39-3.91,3.76-3.1-2.72-5,2.53-4.53,5.19a3.22,3.22,0,0,0-2.42,2.14c-1.74-.82-5.68.94-3.71,2.89-6.64,2.35-1.18,10.64,2.81,10.79-1.19,2.77.74,5,3.85,5.89,0.31,2.85,7,2.67,8-.69a2.31,2.31,0,0,0,.39.15c1.45,2.28,3.28,2.18,4.87,1.3h0c1.33,1.24,3.45,4.93,5,7.4-0.25,4.65-.41,9.33-0.43,10.72h5c0-2.37-1.08-9.85-1.1-11.09,0-.84,0-2.37.09-4.4a43.13,43.13,0,0,1,3.11-3.63,39.15,39.15,0,0,0,9.57-2.15,12.14,12.14,0,0,0,4-.57c-3,4.07,4.1,3.36,6.24.14C2561.63,328.37,2561.6,322.75,2557.36,325.07Zm-23.68,8.21c-0.21,1.35-.4,3.63-0.57,6.2a50.83,50.83,0,0,0-3.94-5,10,10,0,0,0,2.26-2.73c0.17-.35,1.05-0.08,2.45.1C2533.82,332.35,2533.75,332.83,2533.68,333.28Zm2.84,2c0-1,0-2.15,0-3.33a12.35,12.35,0,0,0,4.45-1.15,3.89,3.89,0,0,1,2.05.19A13.59,13.59,0,0,0,2536.52,335.29Zm4.07-1.86a5.13,5.13,0,0,1,2.32-1.37,4.92,4.92,0,0,0,1.62-.67,26.09,26.09,0,0,0,3.7.76A28,28,0,0,1,2540.59,333.43Z" transform="translate(-1721.39 -29.62)"/><path class="cls-38" d="M1769.92,342.19a21.22,21.22,0,0,0-16.93,8.57,20.91,20.91,0,0,0-6.07-.91c-11.89,0-21.53,10-21.53,22.33s9.44,22.06,21.14,22.29a22.14,22.14,0,0,0,5.27,7c0.46,9.42.66,21.72-.48,32.16-0.44,4-4.68,12.37-4.68,12.37s19.81,0,19.83,0-4.53-7.27-5.39-11.37a80.78,80.78,0,0,1-1.15-16.81c1.91-1.39,4.82-4.56,9.2-11.3a22,22,0,0,0,18.16-22,23.15,23.15,0,0,0-.75-5.95,22.59,22.59,0,0,0,4.92-14.08c0-12.32-9.65-22.33-21.54-22.33" transform="translate(-1721.39 -29.62)"/><path class="cls-38" d="M1792.3,355.67a19,19,0,0,0-15.06,7.45,19,19,0,0,0-5.4-.79,19.42,19.42,0,0,0-.35,38.82,19.31,19.31,0,0,0,4.69,6.11,185.24,185.24,0,0,1-.42,28c-0.39,3.51-4.16,10.77-4.16,10.77s17.63,0,17.64,0-4-6.33-4.8-9.89a68.79,68.79,0,0,1-1-14.63c1.7-1.21,4.29-4,8.18-9.83a19.28,19.28,0,0,0,16.16-19.12,19.73,19.73,0,0,0-.67-5.18,19.4,19.4,0,0,0-14.78-31.68" transform="translate(-1721.39 -29.62)"/><path class="cls-38" d="M1780.3,345.72A20.38,20.38,0,0,0,1764,354a20,20,0,0,0-5.85-.89c-11.45,0-20.74,9.73-20.74,21.71s9.1,21.45,20.36,21.67a21.5,21.5,0,0,0,5.08,6.83c0.44,9.16.64,21.12-.46,31.27-0.42,3.92-4.51,12-4.51,12s19.08,0,19.1,0-4.37-7.07-5.2-11.05a79.27,79.27,0,0,1-1.11-16.35c1.83-1.35,4.65-4.43,8.86-11,9.91-1.62,17.5-10.54,17.5-21.36a22.71,22.71,0,0,0-.73-5.78,22.1,22.1,0,0,0,4.74-13.69c0-12-9.29-21.71-20.74-21.71" transform="translate(-1721.39 -29.62)"/></g></svg>